<svg width="28" height="28" viewBox="0 0 28 28" fill="none" xmlns="http://www.w3.org/2000/svg">
<path d="M6.26957 12.1266V17.9505C6.26957 18.4126 6.64412 18.7871 7.10616 18.7871H12.7358C13.1978 18.7871 13.5724 18.4126 13.5724 17.9505V8.19611C13.5724 7.73407 13.947 7.35951 14.409 7.35951H24.1634C24.6254 7.35951 25 6.98496 25 6.52292V0.893277C25 0.431237 24.6254 0.0566794 24.1634 0.0566794H18.3395C15.1807 0.0566794 12.4367 2.30728 11.8312 5.41167L11.7927 5.58146L11.6229 5.61991C8.52017 6.22541 6.26796 8.96938 6.26796 12.1282L6.26957 12.1266Z" fill="white"/>
<path d="M10.6605 27.9433H4V21.4755C4 21.0134 4.37456 20.6389 4.8366 20.6389H14.591C15.053 20.6389 15.4276 20.2643 15.4276 19.8023V10.0479C15.4276 9.58584 15.8022 9.21128 16.2642 9.21128H21.8938C22.3559 9.21128 22.7304 9.58584 22.7304 10.0479V15.8526C22.7304 19.013 20.4606 21.7554 17.377 22.3801L17.2073 22.4185L17.1688 22.5883C16.5441 25.6735 13.8017 27.9433 10.6605 27.9433Z" fill="white"/>
</svg>
