<svg width="194" height="194" viewBox="0 0 194 194" fill="none" xmlns="http://www.w3.org/2000/svg">
<path d="M43.2366 83.6286V123.793C43.2366 126.98 45.8198 129.563 49.0063 129.563H87.8314C91.0178 129.563 93.601 126.98 93.601 123.793V56.5217C93.601 53.3352 96.1841 50.752 99.3706 50.752L166.642 50.752C169.829 50.752 172.412 48.1689 172.412 44.9824V6.15729C172.412 2.9708 169.829 0.387648 166.642 0.387648L126.478 0.387648C104.692 0.387648 85.7685 15.9091 81.5926 37.3186L81.3275 38.4896L80.1565 38.7547C58.758 42.9306 43.2256 61.8545 43.2256 83.6397L43.2366 83.6286Z" fill="#635903"/>
<path d="M73.5189 192.709H27.5844L27.5844 148.104C27.5844 144.917 30.1676 142.334 33.3541 142.334H100.626C103.812 142.334 106.395 139.751 106.395 136.564V69.2925C106.395 66.106 108.979 63.5228 112.165 63.5228L150.99 63.5228C154.177 63.5228 156.76 66.106 156.76 69.2925V109.325C156.76 131.121 141.106 150.034 119.84 154.342L118.669 154.607L118.404 155.778C114.095 177.055 95.1825 192.709 73.5189 192.709Z" fill="#635903"/>
</svg>
