<svg width="31" height="31" viewBox="0 0 31 31" fill="none" xmlns="http://www.w3.org/2000/svg">
<path d="M6.91814 13.3811V19.8074C6.91814 20.3173 7.33145 20.7306 7.84128 20.7306H14.0533C14.5631 20.7306 14.9764 20.3173 14.9764 19.8074V9.04394C14.9764 8.5341 15.3897 8.1208 15.8996 8.1208H26.6631C27.1729 8.1208 27.5862 7.7075 27.5862 7.19766V0.985642C27.5862 0.475805 27.1729 0.0625 26.6631 0.0625H20.2367C16.7511 0.0625 13.7232 2.54592 13.0551 5.97145L13.0127 6.15881L12.8253 6.20123C9.40156 6.86937 6.91637 9.8972 6.91637 13.3828L6.91814 13.3811Z" fill="#321C4A"/>
<path d="M11.7633 30.834H4.41379V23.697C4.41379 23.1872 4.8271 22.7739 5.33693 22.7739H16.1004C16.6103 22.7739 17.0236 22.3606 17.0236 21.8508V11.0873C17.0236 10.5774 17.4369 10.1641 17.9467 10.1641H24.1587C24.6686 10.1641 25.0819 10.5774 25.0819 11.0873V17.4924C25.0819 20.9798 22.5772 24.0059 19.1747 24.6952L18.9873 24.7377L18.9449 24.925C18.2555 28.3293 15.2295 30.834 11.7633 30.834Z" fill="#321C4A"/>
</svg>
