<svg width="22" height="22" viewBox="0 0 22 22" fill="none" xmlns="http://www.w3.org/2000/svg">
<path d="M4.77352 9.23293V13.6671C4.77352 14.0189 5.0587 14.3041 5.41049 14.3041H9.69678C10.0486 14.3041 10.3337 14.0189 10.3337 13.6671V6.24032C10.3337 5.88853 10.6189 5.60335 10.9707 5.60335H18.3975C18.7493 5.60335 19.0345 5.31817 19.0345 4.96638V0.680093C19.0345 0.328305 18.7493 0.043125 18.3975 0.043125H13.9633C11.5582 0.043125 9.46904 1.75669 9.00802 4.1203L8.97875 4.24958L8.84947 4.27885C6.48708 4.73987 4.7723 6.82907 4.7723 9.23415L4.77352 9.23293Z" fill="#630403"/>
<path d="M8.11668 21.2754H3.04552V16.351C3.04552 15.9992 3.3307 15.714 3.68248 15.714H11.1093C11.4611 15.714 11.7463 15.4288 11.7463 15.077V7.65022C11.7463 7.29843 12.0314 7.01325 12.3832 7.01325H16.6695C17.0213 7.01325 17.3065 7.29843 17.3065 7.65022V12.0698C17.3065 14.4761 15.5783 16.5641 13.2305 17.0397L13.1012 17.069L13.072 17.1983C12.5963 19.5472 10.5083 21.2754 8.11668 21.2754Z" fill="#630403"/>
</svg>
