<svg width="19" height="17" viewBox="0 0 19 17" fill="none" xmlns="http://www.w3.org/2000/svg">
<path d="M8.99935 16.8333C4.39697 16.8333 0.666016 13.1023 0.666016 8.5C0.666016 3.89762 4.39697 0.166664 8.99935 0.166664C11.7254 0.166664 14.1458 1.47565 15.6662 3.49936L13.4084 3.49942C12.2333 2.46249 10.6898 1.83333 8.99935 1.83333C5.31745 1.83333 2.33268 4.8181 2.33268 8.5C2.33268 12.1819 5.31745 15.1667 8.99935 15.1667C10.6902 15.1667 12.234 14.5372 13.4093 13.4998H15.6668C14.1464 15.524 11.7258 16.8333 8.99935 16.8333ZM14.8327 11.8333V9.33333H8.16601V7.66666H14.8327V5.16666L18.9993 8.5L14.8327 11.8333Z" fill="#F04438"/>
</svg>
