<svg width="19" height="20" viewBox="0 0 19 20" fill="none" xmlns="http://www.w3.org/2000/svg">
<path d="M11.1202 15.0233L6.92129 12.7329C6.19135 13.513 5.15261 14.0005 4 14.0005C1.79086 14.0005 0 12.2096 0 10.0005C0 7.79135 1.79086 6.00049 4 6.00049C5.15255 6.00049 6.19125 6.48795 6.92118 7.26795L11.1202 4.97762C11.0417 4.6649 11 4.33756 11 4.00049C11 1.79135 12.7909 0.000488281 15 0.000488281C17.2091 0.000488281 19 1.79135 19 4.00049C19 6.20963 17.2091 8.00049 15 8.00049C13.8474 8.00049 12.8087 7.513 12.0787 6.73295L7.87977 9.02329C7.9583 9.33599 8 9.66339 8 10.0005C8 10.3376 7.95831 10.6649 7.87981 10.9776L12.0788 13.268C12.8087 12.488 13.8474 12.0005 15 12.0005C17.2091 12.0005 19 13.7914 19 16.0005C19 18.2096 17.2091 20.0005 15 20.0005C12.7909 20.0005 11 18.2096 11 16.0005C11 15.6634 11.0417 15.336 11.1202 15.0233ZM4 12.0005C5.10457 12.0005 6 11.1051 6 10.0005C6 8.89589 5.10457 8.00049 4 8.00049C2.89543 8.00049 2 8.89589 2 10.0005C2 11.1051 2.89543 12.0005 4 12.0005ZM15 6.00049C16.1046 6.00049 17 5.10506 17 4.00049C17 2.89592 16.1046 2.00049 15 2.00049C13.8954 2.00049 13 2.89592 13 4.00049C13 5.10506 13.8954 6.00049 15 6.00049ZM15 18.0005C16.1046 18.0005 17 17.1051 17 16.0005C17 14.8959 16.1046 14.0005 15 14.0005C13.8954 14.0005 13 14.8959 13 16.0005C13 17.1051 13.8954 18.0005 15 18.0005Z" fill="#653894"/>
</svg>
