<svg width="17" height="17" viewBox="0 0 17 17" fill="none" xmlns="http://www.w3.org/2000/svg">
<path fill-rule="evenodd" clip-rule="evenodd" d="M14.6838 3.24664L13.7509 2.3151C12.6625 1.2283 10.8745 1.2283 9.78616 2.3151L2.86735 9.22408C2.47865 9.61216 2.24544 10.0779 2.08996 10.6214L1.54579 12.9502C1.23483 14.4252 2.5564 15.8225 4.03345 15.4343L6.36562 14.891C6.9098 14.8133 7.37624 14.5028 7.76493 14.1146L14.6838 7.2057C15.7721 6.1189 15.7721 4.33344 14.6838 3.24664ZM6.05466 13.5713L3.72248 14.1146C3.25605 14.1922 2.78961 13.8042 2.86735 13.2607L3.41153 10.9318C3.48927 10.699 3.56701 10.4661 3.80022 10.2332L6.75432 13.1831C6.5211 13.3383 6.28788 13.4936 6.05466 13.5713ZM7.76493 12.1739L4.81084 9.22408L8.77552 5.26498L11.7296 8.21487L7.76493 12.1739ZM13.6731 6.27416L12.6625 7.28333L9.7084 4.33344L10.719 3.32427C11.2632 2.78087 12.1961 2.78087 12.7402 3.32427L13.6731 4.25581C14.2173 4.79921 14.2173 5.73076 13.6731 6.27416Z" fill="white"/>
</svg>
