<svg width="15" height="15" viewBox="0 0 15 15" fill="none" xmlns="http://www.w3.org/2000/svg">
<path d="M0.333984 14.6665C0.333984 11.721 2.7218 9.33317 5.66732 9.33317C8.61285 9.33317 11.0007 11.721 11.0007 14.6665H0.333984ZM5.66732 8.6665C3.45732 8.6665 1.66732 6.8765 1.66732 4.6665C1.66732 2.4565 3.45732 0.666504 5.66732 0.666504C7.87732 0.666504 9.66732 2.4565 9.66732 4.6665C9.66732 6.8765 7.87732 8.6665 5.66732 8.6665ZM10.5759 10.1553C12.6328 10.681 14.1793 12.4822 14.3231 14.6665H12.334C12.334 12.9266 11.6675 11.3424 10.5759 10.1553ZM9.22738 8.63777C10.3159 7.6613 11.0007 6.24388 11.0007 4.6665C11.0007 3.72161 10.7549 2.83411 10.3239 2.06442C11.8509 2.36915 13.0007 3.71627 13.0007 5.33317C13.0007 7.17484 11.509 8.6665 9.66732 8.6665C9.51818 8.6665 9.37132 8.6567 9.22738 8.63777Z" fill="white"/>
</svg>
