<svg width="141" height="22" viewBox="0 0 141 22" fill="none" xmlns="http://www.w3.org/2000/svg">
<path d="M4.52623 20.9602V7.77238C4.52623 7.26807 4.61869 6.90244 4.80361 6.67549C4.98852 6.44855 5.2701 6.30566 5.64833 6.24683H0V2.62836H13.0366V6.24683H8.53554V20.9602H4.52623Z" fill="white"/>
<path d="M13.7521 20.9602V7.20503H17.257L17.5849 12.5886L17.3579 11.7691C17.4336 11.0462 17.5722 10.3906 17.774 9.80225C17.9757 9.20548 18.2363 8.69276 18.5557 8.26409C18.8751 7.83542 19.2575 7.50341 19.703 7.26806C20.1569 7.03272 20.6738 6.91504 21.2537 6.91504C21.4219 6.91504 21.59 6.92345 21.7581 6.94026C21.9346 6.95707 22.0901 6.98649 22.2246 7.02852V11.1009C21.9388 11.0252 21.6614 10.9748 21.3924 10.9496C21.1319 10.9159 20.8713 10.8991 20.6107 10.8991C20.1485 10.8991 19.7282 10.9412 19.35 11.0252C18.9801 11.1093 18.6565 11.2395 18.3792 11.4161C18.1018 11.5842 17.8706 11.8027 17.6857 12.0717V20.9602H13.7521Z" fill="white"/>
<path d="M26.918 21.2376C25.6741 21.2376 24.7075 20.8257 24.0182 20.002C23.329 19.1699 22.9844 17.9175 22.9844 16.2449V7.19242H26.918V14.9337C26.918 15.7826 26.9853 16.4298 27.1198 16.8753C27.2627 17.3208 27.4602 17.6275 27.7123 17.7957C27.9645 17.9554 28.2671 18.0352 28.6201 18.0352C29.1412 18.0352 29.6119 17.8671 30.0322 17.5309C30.4609 17.1863 30.7803 16.7828 30.9904 16.3205V7.19242H34.924V20.9602H31.4443L31.0912 15.7658L31.2425 16.8122C31.1417 17.5687 30.94 18.2832 30.6374 18.9556C30.3432 19.628 29.8977 20.1785 29.3009 20.6072C28.7126 21.0275 27.9183 21.2376 26.918 21.2376Z" fill="white"/>
<path d="M42.9322 21.1494C41.5369 21.1494 40.3476 20.872 39.3642 20.3172C38.3808 19.7625 37.6285 18.9598 37.1074 17.9091C36.5863 16.8501 36.3257 15.5725 36.3257 14.0763C36.3257 12.5298 36.6031 11.2269 37.1578 10.1679C37.7126 9.10041 38.4942 8.29351 39.5029 7.74716C40.5115 7.20082 41.6924 6.92765 43.0457 6.92765C44.3569 6.92765 45.458 7.17561 46.349 7.67152C47.2483 8.16743 47.9291 8.89868 48.3914 9.86529C48.8537 10.8319 49.0849 12.0212 49.0849 13.4333C49.0849 13.6098 49.0765 13.8158 49.0597 14.0511C49.0512 14.2781 49.0386 14.5386 49.0218 14.8328H40.1711C40.2636 15.9759 40.5409 16.8122 41.0032 17.3418C41.4655 17.8629 42.1127 18.1235 42.9448 18.1235C43.6341 18.1235 44.1552 17.9722 44.5082 17.6696C44.8696 17.367 45.084 16.9677 45.1512 16.4718H48.9084C48.8327 17.4216 48.5427 18.2495 48.0384 18.9556C47.5425 19.6532 46.8617 20.1954 45.9959 20.582C45.1302 20.9602 44.109 21.1494 42.9322 21.1494ZM41.7723 12.6264H45.3151C45.2815 11.7439 45.0672 11.0841 44.6721 10.647C44.2855 10.2099 43.6887 9.99137 42.8818 9.99137C41.932 9.99137 41.2386 10.3318 40.8015 11.0126C40.3644 11.685 40.1417 12.6432 40.1333 13.8872C40.2005 13.4081 40.3644 13.0803 40.625 12.9038C40.8855 12.7189 41.268 12.6264 41.7723 12.6264Z" fill="white"/>
<path d="M53.5619 20.9602L48.9852 2.62836H53.2719L55.2261 12.7021L55.9574 17.7957H56.033L56.7012 12.7021L58.4159 2.62836H63.7616L65.4889 12.7021L66.1571 17.7957H66.2202L66.9893 12.7021L68.9687 2.62836H73.2554L68.6157 20.9602H63.5599L61.7822 11.0252L61.1266 6.27204H61.0509L60.3953 11.0252L58.6302 20.9602H53.5619Z" fill="white"/>
<path d="M74.369 20.9602V7.20503H78.2775V20.9602H74.369ZM76.3358 5.62904C75.6802 5.62904 75.1213 5.4021 74.659 4.94821C74.1967 4.48592 73.9656 3.89756 73.9656 3.18311C73.9656 2.46866 74.1967 1.8887 74.659 1.44322C75.1213 0.989336 75.6802 0.762394 76.3358 0.762394C76.983 0.762394 77.5378 0.989336 78.0001 1.44322C78.4624 1.8887 78.6935 2.46866 78.6935 3.18311C78.6935 3.89756 78.4624 4.48592 78.0001 4.94821C77.5378 5.4021 76.983 5.62904 76.3358 5.62904Z" fill="white"/>
<path d="M85.4054 21.1746C84.2203 21.1746 83.1991 21.0023 82.3417 20.6576C81.4928 20.313 80.833 19.7919 80.3623 19.0943C79.8916 18.3882 79.631 17.4931 79.5806 16.4088H83.4008C83.4764 17.0812 83.6908 17.5771 84.0438 17.8965C84.4052 18.2159 84.8885 18.3756 85.4937 18.3756C85.7963 18.3756 86.0863 18.342 86.3636 18.2748C86.641 18.1991 86.868 18.073 87.0445 17.8965C87.221 17.7116 87.3092 17.4594 87.3092 17.14C87.3092 16.8795 87.242 16.6693 87.1075 16.5096C86.9814 16.3415 86.7923 16.2029 86.5401 16.0936C86.2964 15.9759 85.998 15.8708 85.645 15.7784C85.292 15.6775 84.8927 15.5599 84.4472 15.4254C83.6571 15.19 82.9175 14.9042 82.2282 14.568C81.5474 14.2318 80.9969 13.7821 80.5766 13.219C80.1564 12.6558 79.9462 11.9162 79.9462 11C79.9462 9.62994 80.4463 8.61291 81.4466 7.94889C82.4552 7.28488 83.7748 6.95287 85.4054 6.95287C86.3636 6.95287 87.2252 7.08315 87.9901 7.34371C88.7549 7.60428 89.3853 8.06656 89.8812 8.73058C90.3856 9.3946 90.7092 10.3318 90.852 11.5421L87.0571 11.5169C86.9814 10.979 86.8511 10.5797 86.6662 10.3192C86.4813 10.0502 86.2712 9.8737 86.0358 9.78964C85.8005 9.69719 85.5567 9.65096 85.3046 9.65096C85.0188 9.65096 84.7582 9.69719 84.5229 9.78964C84.2959 9.8821 84.1152 10.0166 83.9807 10.1931C83.8463 10.3696 83.779 10.5923 83.779 10.8613C83.779 11.1807 83.8799 11.4539 84.0816 11.6808C84.2833 11.9078 84.5901 12.1095 85.002 12.286C85.4138 12.4541 85.9392 12.6264 86.578 12.8029C86.9982 12.9122 87.4689 13.0467 87.9901 13.2064C88.5196 13.3661 89.0239 13.5888 89.503 13.8746C89.9905 14.1604 90.3898 14.547 90.7008 15.0345C91.0202 15.522 91.1798 16.1524 91.1798 16.9257C91.1798 18.2706 90.6629 19.317 89.6291 20.0651C88.5952 20.8047 87.1874 21.1746 85.4054 21.1746Z" fill="white"/>
<path d="M97.143 21.1241C96.0671 21.1241 95.1425 20.8342 94.3693 20.2542C93.596 19.6658 93.0034 18.8379 92.5915 17.7704C92.1881 16.703 91.9864 15.4506 91.9864 14.0133C91.9864 12.5256 92.2133 11.2564 92.6672 10.2057C93.1211 9.14664 93.7557 8.33974 94.571 7.78499C95.3863 7.22184 96.3277 6.94026 97.3951 6.94026C98.0844 6.94026 98.6769 7.05793 99.1729 7.29328C99.6772 7.52863 100.085 7.84383 100.396 8.23887C100.707 8.63392 100.913 9.06679 101.014 9.53749L101.467 10.8235L100.85 11.7186C100.766 11.3993 100.623 11.1261 100.421 10.8991C100.228 10.6638 99.9756 10.4831 99.6646 10.357C99.362 10.2309 99.0006 10.1679 98.5803 10.1679C97.7314 10.1679 97.0715 10.4915 96.6009 11.1387C96.1386 11.7775 95.9074 12.7609 95.9074 14.0889C95.9074 15.3581 96.1302 16.3121 96.5756 16.9509C97.0295 17.5897 97.6851 17.9091 98.5425 17.9091C98.9543 17.9091 99.3242 17.8503 99.652 17.7326C99.9882 17.6065 100.261 17.4552 100.471 17.2787C100.682 17.0938 100.808 16.9131 100.85 16.7366L101.001 16.9005L100.85 17.7326C100.732 18.2369 100.572 18.6992 100.371 19.1195C100.169 19.5313 99.9209 19.8886 99.6267 20.1912C99.3326 20.4853 98.9795 20.7165 98.5677 20.8846C98.1642 21.0443 97.6893 21.1241 97.143 21.1241ZM100.862 20.9602L100.85 1.34236H104.758V20.9602H100.862Z" fill="white"/>
<path d="M112.787 21.1494C111.451 21.1494 110.291 20.8762 109.308 20.3298C108.324 19.7835 107.559 18.9808 107.013 17.9217C106.475 16.8543 106.206 15.5472 106.206 14.0007C106.206 12.5382 106.492 11.2774 107.063 10.2183C107.635 9.15925 108.421 8.34814 109.421 7.78499C110.421 7.21343 111.56 6.92765 112.838 6.92765C114.216 6.92765 115.393 7.21343 116.368 7.78499C117.351 8.34814 118.104 9.15925 118.625 10.2183C119.154 11.2774 119.419 12.5382 119.419 14.0007C119.419 15.5472 119.129 16.8543 118.549 17.9217C117.969 18.9808 117.179 19.7835 116.179 20.3298C115.179 20.8762 114.048 21.1494 112.787 21.1494ZM112.838 17.9091C113.603 17.9091 114.242 17.6275 114.754 17.0644C115.267 16.4928 115.523 15.4716 115.523 14.0007C115.523 12.6306 115.254 11.6514 114.716 11.063C114.187 10.4663 113.548 10.1679 112.8 10.1679C112.035 10.1679 111.396 10.4663 110.884 11.063C110.371 11.6514 110.115 12.6306 110.115 14.0007C110.115 15.4128 110.384 16.4172 110.921 17.014C111.459 17.6107 112.098 17.9091 112.838 17.9091Z" fill="white"/>
<path d="M120.878 20.9602V7.20503H124.383L124.711 12.3869L124.559 11.3404C124.66 10.5839 124.845 9.86949 125.114 9.19707C125.391 8.51625 125.807 7.9657 126.362 7.54544C126.925 7.12518 127.686 6.91504 128.644 6.91504C129.728 6.91504 130.628 7.24285 131.342 7.89846C132.065 8.55407 132.506 9.57111 132.666 10.9496L132.717 11.6178V20.9602H128.783V13.3072C128.783 12.4331 128.707 11.7691 128.556 11.3152C128.413 10.8529 128.216 10.5377 127.963 10.3696C127.711 10.2015 127.417 10.1174 127.081 10.1174C126.543 10.1174 126.081 10.2898 125.694 10.6344C125.316 10.9706 125.022 11.3698 124.811 11.8321V20.9602H120.878ZM136.675 20.9602V13.3072C136.675 12.4331 136.6 11.7691 136.448 11.3152C136.306 10.8529 136.108 10.5377 135.856 10.3696C135.604 10.2015 135.31 10.1174 134.973 10.1174C134.435 10.1174 133.977 10.2898 133.599 10.6344C133.221 10.9706 132.927 11.3698 132.717 11.8321L132.628 12.3869L132.565 11.4161C132.641 10.7016 132.805 9.99977 133.057 9.31054C133.318 8.62131 133.721 8.04975 134.267 7.59587C134.822 7.14199 135.574 6.91504 136.524 6.91504C137.743 6.91504 138.726 7.3227 139.474 8.13801C140.231 8.94491 140.609 10.1805 140.609 11.8447V20.9602H136.675Z" fill="white"/>
</svg>
