<svg width="109" height="16" viewBox="0 0 109 16" fill="none" xmlns="http://www.w3.org/2000/svg">
<path d="M4.42415 15.6233V5.58235C4.42415 5.19837 4.49455 4.91999 4.63534 4.7472C4.77613 4.57441 4.99052 4.46562 5.2785 4.42082H0.977972V1.6658H10.9037V4.42082H7.47676V15.6233H4.42415Z" fill="#321C4A"/>
<path d="M11.4485 15.6233V5.15038H14.1171L14.3667 9.24931L14.1939 8.62535C14.2515 8.07499 14.3571 7.57582 14.5107 7.12785C14.6643 6.67348 14.8627 6.2831 15.1059 5.95672C15.3491 5.63034 15.6402 5.37756 15.9794 5.19837C16.325 5.01918 16.7186 4.92959 17.1601 4.92959C17.2881 4.92959 17.4161 4.93599 17.5441 4.94879C17.6785 4.96159 17.7969 4.98399 17.8993 5.01598V8.11659C17.6817 8.05899 17.4705 8.02059 17.2657 8.00139C17.0673 7.97579 16.869 7.963 16.6706 7.963C16.3186 7.963 15.9986 7.99499 15.7106 8.05899C15.429 8.12299 15.1827 8.22218 14.9715 8.35657C14.7603 8.48456 14.5843 8.65095 14.4435 8.85574V15.6233H11.4485Z" fill="#321C4A"/>
<path d="M21.4728 15.8345C20.5257 15.8345 19.7897 15.5209 19.265 14.8938C18.7402 14.2602 18.4778 13.3067 18.4778 12.0331V5.14078H21.4728V11.0348C21.4728 11.6812 21.524 12.1739 21.6264 12.5131C21.7352 12.8523 21.8856 13.0859 22.0776 13.2139C22.2696 13.3355 22.4999 13.3962 22.7687 13.3962C23.1655 13.3962 23.5239 13.2683 23.8439 13.0123C24.1702 12.7499 24.4134 12.4427 24.5734 12.0907V5.14078H27.5684V15.6233H24.919L24.6502 11.6684L24.7654 12.4651C24.6886 13.0411 24.535 13.585 24.3046 14.097C24.0806 14.609 23.7415 15.0281 23.2871 15.3545C22.8391 15.6745 22.2344 15.8345 21.4728 15.8345Z" fill="#321C4A"/>
<path d="M33.6657 15.7673C32.6033 15.7673 31.6978 15.5561 30.9491 15.1337C30.2003 14.7114 29.6275 14.1002 29.2308 13.3003C28.834 12.4939 28.6356 11.5212 28.6356 10.382C28.6356 9.20452 28.8468 8.21258 29.2692 7.40623C29.6915 6.59348 30.2867 5.97912 31.0546 5.56315C31.8226 5.14718 32.7217 4.93919 33.7521 4.93919C34.7504 4.93919 35.5888 5.12798 36.2671 5.50555C36.9519 5.88313 37.4702 6.43989 37.8222 7.17585C38.1742 7.9118 38.3502 8.81734 38.3502 9.89247C38.3502 10.0269 38.3438 10.1837 38.331 10.3628C38.3246 10.5356 38.315 10.734 38.3022 10.958H31.5634C31.6338 11.8283 31.845 12.4651 32.197 12.8683C32.5489 13.2651 33.0417 13.4634 33.6753 13.4634C34.2 13.4634 34.5968 13.3483 34.8656 13.1179C35.1408 12.8875 35.304 12.5835 35.3552 12.2059H38.2158C38.1582 12.9291 37.9374 13.5594 37.5534 14.097C37.1759 14.6282 36.6575 15.0409 35.9983 15.3353C35.3392 15.6233 34.5616 15.7673 33.6657 15.7673ZM32.7825 9.27811H35.48C35.4544 8.60615 35.2912 8.10379 34.9904 7.77101C34.696 7.43823 34.2416 7.27184 33.6273 7.27184C32.9041 7.27184 32.3762 7.53102 32.0434 8.04939C31.7106 8.56136 31.541 9.29091 31.5346 10.238C31.5858 9.87327 31.7106 9.62369 31.909 9.4893C32.1074 9.34851 32.3986 9.27811 32.7825 9.27811Z" fill="#321C4A"/>
<path d="M41.7589 15.6233L38.2743 1.6658H41.5381L43.026 9.33571L43.5827 13.2139H43.6403L44.1491 9.33571L45.4546 1.6658H49.5248L50.8399 9.33571L51.3486 13.2139H51.3966L51.9822 9.33571L53.4893 1.6658H56.7531L53.2205 15.6233H49.3712L48.0177 8.05899L47.5185 4.44002H47.4609L46.9617 8.05899L45.6178 15.6233H41.7589Z" fill="#321C4A"/>
<path d="M57.601 15.6233V5.15038H60.5768V15.6233H57.601ZM59.0985 3.95045C58.5993 3.95045 58.1738 3.77766 57.8218 3.43209C57.4698 3.08011 57.2938 2.63214 57.2938 2.08817C57.2938 1.54421 57.4698 1.10263 57.8218 0.763456C58.1738 0.417878 58.5993 0.245089 59.0985 0.245089C59.5913 0.245089 60.0136 0.417878 60.3656 0.763456C60.7176 1.10263 60.8936 1.54421 60.8936 2.08817C60.8936 2.63214 60.7176 3.08011 60.3656 3.43209C60.0136 3.77766 59.5913 3.95045 59.0985 3.95045Z" fill="#321C4A"/>
<path d="M66.0039 15.7865C65.1016 15.7865 64.324 15.6553 63.6713 15.3929C63.0249 15.1305 62.5225 14.7338 62.1642 14.2026C61.8058 13.665 61.6074 12.9835 61.569 12.1579H64.4776C64.5352 12.6699 64.6984 13.0475 64.9672 13.2907C65.2424 13.5338 65.6103 13.6554 66.0711 13.6554C66.3015 13.6554 66.5223 13.6298 66.7335 13.5786C66.9446 13.521 67.1174 13.425 67.2518 13.2907C67.3862 13.1499 67.4534 12.9579 67.4534 12.7147C67.4534 12.5163 67.4022 12.3563 67.2998 12.2347C67.2038 12.1067 67.0598 12.0011 66.8678 11.9179C66.6823 11.8283 66.4551 11.7484 66.1863 11.678C65.9175 11.6012 65.6135 11.5116 65.2743 11.4092C64.6728 11.23 64.1096 11.0124 63.5849 10.7564C63.0665 10.5004 62.6473 10.1581 62.3273 9.72928C62.0074 9.30051 61.8474 8.73735 61.8474 8.03979C61.8474 6.99666 62.2281 6.22231 62.9897 5.71674C63.7577 5.21117 64.7624 4.95839 66.0039 4.95839C66.7335 4.95839 67.3894 5.05758 67.9718 5.25597C68.5541 5.45436 69.0341 5.80633 69.4117 6.3119C69.7957 6.81747 70.042 7.53102 70.1508 8.45256L67.2614 8.43337C67.2038 8.02379 67.1046 7.71981 66.9638 7.52142C66.8231 7.31664 66.6631 7.18225 66.4839 7.11825C66.3047 7.04785 66.1191 7.01266 65.9271 7.01266C65.7095 7.01266 65.5111 7.04785 65.3319 7.11825C65.1592 7.18865 65.0216 7.29104 64.9192 7.42543C64.8168 7.55982 64.7656 7.72941 64.7656 7.9342C64.7656 8.17738 64.8424 8.38537 64.996 8.55816C65.1496 8.73095 65.3831 8.88454 65.6967 9.01893C66.0103 9.14692 66.4103 9.27811 66.8966 9.4125C67.2166 9.4957 67.575 9.59809 67.9718 9.71968C68.375 9.84128 68.7589 10.0109 69.1237 10.2285C69.4949 10.446 69.7989 10.7404 70.0356 11.1116C70.2788 11.4828 70.4004 11.9627 70.4004 12.5515C70.4004 13.5754 70.0068 14.3722 69.2197 14.9417C68.4326 15.5049 67.3606 15.7865 66.0039 15.7865Z" fill="#321C4A"/>
<path d="M74.9406 15.7481C74.1215 15.7481 73.4175 15.5273 72.8288 15.0857C72.24 14.6378 71.7888 14.0074 71.4753 13.1947C71.1681 12.3819 71.0145 11.4284 71.0145 10.334C71.0145 9.20132 71.1873 8.23498 71.5329 7.43503C71.8784 6.62868 72.3616 6.01432 72.9824 5.59195C73.6031 5.16317 74.3199 4.94879 75.1326 4.94879C75.6574 4.94879 76.1086 5.03838 76.4861 5.21757C76.8701 5.39676 77.1805 5.63674 77.4173 5.93753C77.6541 6.23831 77.8108 6.56788 77.8876 6.92626L78.2332 7.9054L77.7629 8.58696C77.6989 8.34377 77.5901 8.13578 77.4365 7.963C77.2893 7.78381 77.0973 7.64622 76.8605 7.55022C76.6301 7.45423 76.3549 7.40623 76.035 7.40623C75.3886 7.40623 74.8862 7.65262 74.5279 8.14538C74.1759 8.63175 73.9999 9.3805 73.9999 10.3916C73.9999 11.358 74.1695 12.0843 74.5087 12.5707C74.8542 13.0571 75.3534 13.3003 76.0062 13.3003C76.3197 13.3003 76.6013 13.2555 76.8509 13.1659C77.1069 13.0699 77.3149 12.9547 77.4749 12.8203C77.6349 12.6795 77.7309 12.5419 77.7629 12.4075L77.878 12.5323L77.7629 13.1659C77.6733 13.5498 77.5517 13.9018 77.3981 14.2218C77.2445 14.5354 77.0557 14.8074 76.8317 15.0377C76.6077 15.2617 76.3389 15.4377 76.0254 15.5657C75.7182 15.6873 75.3566 15.7481 74.9406 15.7481ZM77.7725 15.6233L77.7629 0.686661H80.7387V15.6233H77.7725Z" fill="#321C4A"/>
<path d="M86.852 15.7673C85.8344 15.7673 84.9513 15.5593 84.2025 15.1433C83.4538 14.7274 82.8714 14.1162 82.4555 13.3099C82.0459 12.4971 81.8411 11.502 81.8411 10.3244C81.8411 9.21092 82.0587 8.25098 82.4939 7.44463C82.929 6.63828 83.5274 6.02072 84.2889 5.59195C85.0505 5.15678 85.9176 4.93919 86.8904 4.93919C87.9399 4.93919 88.8358 5.15678 89.5782 5.59195C90.3269 6.02072 90.8997 6.63828 91.2965 7.44463C91.6997 8.25098 91.9012 9.21092 91.9012 10.3244C91.9012 11.502 91.6805 12.4971 91.2389 13.3099C90.7973 14.1162 90.1958 14.7274 89.4342 15.1433C88.6727 15.5593 87.8119 15.7673 86.852 15.7673ZM86.8904 13.3003C87.4727 13.3003 87.9591 13.0859 88.3495 12.6571C88.7399 12.2219 88.935 11.4444 88.935 10.3244C88.935 9.28131 88.7303 8.53576 88.3207 8.08779C87.9175 7.63342 87.4311 7.40623 86.8616 7.40623C86.2792 7.40623 85.7928 7.63342 85.4025 8.08779C85.0121 8.53576 84.8169 9.28131 84.8169 10.3244C84.8169 11.3996 85.0217 12.1643 85.4313 12.6187C85.8408 13.0731 86.3272 13.3003 86.8904 13.3003Z" fill="#321C4A"/>
<path d="M93.0118 15.6233V5.15038H95.6804L95.93 9.09572L95.8148 8.29897C95.8916 7.72301 96.0324 7.17905 96.2372 6.66708C96.4484 6.14871 96.7651 5.72954 97.1875 5.40956C97.6163 5.08958 98.1954 4.92959 98.925 4.92959C99.7505 4.92959 100.435 5.17917 100.979 5.67834C101.53 6.17751 101.866 6.95186 101.987 8.00139L102.026 8.51016V15.6233H99.0306V9.79648C99.0306 9.13092 98.973 8.62535 98.8578 8.27977C98.749 7.9278 98.5986 7.68781 98.4066 7.55982C98.2146 7.43183 97.9907 7.36783 97.7347 7.36783C97.3251 7.36783 96.9731 7.49903 96.6787 7.76141C96.3908 8.01739 96.1668 8.32137 96.0068 8.67335V15.6233H93.0118ZM105.04 15.6233V9.79648C105.04 9.13092 104.982 8.62535 104.867 8.27977C104.758 7.9278 104.608 7.68781 104.416 7.55982C104.224 7.43183 104 7.36783 103.744 7.36783C103.334 7.36783 102.986 7.49903 102.698 7.76141C102.41 8.01739 102.186 8.32137 102.026 8.67335L101.958 9.09572L101.91 8.35657C101.968 7.8126 102.093 7.27824 102.285 6.75347C102.483 6.22871 102.79 5.79353 103.206 5.44796C103.629 5.10238 104.201 4.92959 104.925 4.92959C105.853 4.92959 106.601 5.23997 107.171 5.86073C107.747 6.47509 108.035 7.41583 108.035 8.68295V15.6233H105.04Z" fill="#321C4A"/>
</svg>
