<svg width="24" height="31" viewBox="0 0 24 31" fill="none" xmlns="http://www.w3.org/2000/svg">
<path d="M2.91814 13.3811V19.8074C2.91814 20.3173 3.33145 20.7306 3.84128 20.7306H10.0533C10.5631 20.7306 10.9764 20.3173 10.9764 19.8074V9.04394C10.9764 8.5341 11.3897 8.1208 11.8996 8.1208H22.6631C23.1729 8.1208 23.5862 7.7075 23.5862 7.19766V0.985642C23.5862 0.475805 23.1729 0.0625 22.6631 0.0625H16.2367C12.7511 0.0625 9.72324 2.54592 9.05511 5.97145L9.01268 6.15881L8.82532 6.20123C5.40156 6.86937 2.91637 9.8972 2.91637 13.3828L2.91814 13.3811Z" fill="#321C4A"/>
<path d="M7.7633 30.834H0.413793V23.697C0.413793 23.1872 0.827097 22.7739 1.33693 22.7739H12.1004C12.6103 22.7739 13.0236 22.3606 13.0236 21.8508V11.0873C13.0236 10.5774 13.4369 10.1641 13.9467 10.1641H20.1587C20.6686 10.1641 21.0819 10.5774 21.0819 11.0873V17.4924C21.0819 20.9798 18.5772 24.0059 15.1747 24.6952L14.9873 24.7377L14.9449 24.925C14.2555 28.3293 11.2295 30.834 7.7633 30.834Z" fill="#321C4A"/>
</svg>
