<svg width="23" height="19" viewBox="0 0 23 19" fill="none" xmlns="http://www.w3.org/2000/svg">
<path d="M8.3349 9.5022L10.5049 9.5027C12.9902 9.5027 15.0049 11.5174 15.0049 14.0027L8.00388 14.0018L8.00488 15.0027L16.0049 15.0019V14.0027C16.0049 12.9202 15.6867 11.8996 15.1188 11.0019L18.0049 11.0027C19.9972 11.0027 21.7173 12.1679 22.521 13.8541C20.1562 16.9747 16.3268 19.0027 12.0049 19.0027C9.2436 19.0027 6.90437 18.4121 5.00447 17.3779L5.00592 8.0737C6.25147 8.2521 7.39122 8.7583 8.3349 9.5022ZM3.00488 7.00268C3.51772 7.00268 3.94039 7.38872 3.99816 7.88606L4.00488 8.0018V17.0027C4.00488 17.555 3.55717 18.0027 3.00488 18.0027H1.00488C0.4526 18.0027 0.00487995 17.555 0.00487995 17.0027V8.0027C0.00487995 7.45039 0.4526 7.00268 1.00488 7.00268H3.00488ZM12.6513 1.57806L13.0046 1.93183L13.3584 1.57806C14.3347 0.60175 15.9177 0.60175 16.894 1.57806C17.8703 2.55437 17.8703 4.13728 16.894 5.11359L13.0049 9.0027L9.1158 5.11359C8.13948 4.13728 8.13948 2.55437 9.1158 1.57806C10.0921 0.60175 11.675 0.60175 12.6513 1.57806Z" fill="black"/>
</svg>
