<svg width="143" height="22" viewBox="0 0 143 22" fill="none" xmlns="http://www.w3.org/2000/svg">
<path d="M5.10739 21.1265C3.97241 21.1265 3.08965 20.8407 2.45911 20.269C1.82857 19.6889 1.5091 18.7935 1.50069 17.5829L1.46286 11.4288C1.46286 11.1093 1.55113 10.8487 1.72768 10.6469C1.91264 10.4451 2.16906 10.3148 2.49695 10.256L1.46286 7.7464V7.33025L2.18167 3.25695H5.37222V16.3722C5.37222 16.9607 5.44368 17.3685 5.5866 17.5955C5.73793 17.8225 6.02378 17.936 6.44414 17.936C6.8645 17.936 7.2134 17.9276 7.49084 17.9107C7.77668 17.8939 8.04571 17.8645 8.29793 17.8225V20.9121C7.99527 21.0214 7.54128 21.0845 6.93596 21.1013C6.33905 21.1181 5.72952 21.1265 5.10739 21.1265ZM0 10.256V7.20414H8.20965V10.256H0Z" fill="white"/>
<path d="M10.4016 20.9626V7.20414H13.9074L14.2353 12.589L14.0083 11.7693C14.0839 11.0462 14.2227 10.3905 14.4244 9.80197C14.6262 9.20506 14.8868 8.69222 15.2063 8.26345C15.5258 7.83468 15.9083 7.50259 16.3539 7.26719C16.8079 7.03179 17.3249 6.91409 17.905 6.91409C18.0732 6.91409 18.2413 6.9225 18.4095 6.93931C18.586 6.95613 18.7415 6.98555 18.8761 7.02759V11.1009C18.5902 11.0252 18.3128 10.9748 18.0437 10.9496C17.7831 10.9159 17.5225 10.8991 17.2619 10.8991C16.7995 10.8991 16.3791 10.9412 16.0008 11.0252C15.6309 11.1093 15.3072 11.2396 15.0298 11.4162C14.7523 11.5843 14.5211 11.8029 14.3362 12.0719V20.9626H10.4016Z" fill="white"/>
<path d="M24.5795 21.24C23.3352 21.24 22.3684 20.828 21.679 20.0041C20.9896 19.1718 20.6449 17.9191 20.6449 16.2461V7.19153H24.5795V14.9346C24.5795 15.7837 24.6468 16.4311 24.7813 16.8767C24.9242 17.3222 25.1218 17.6291 25.374 17.7972C25.6262 17.957 25.9289 18.0368 26.282 18.0368C26.8032 18.0368 27.274 17.8687 27.6944 17.5324C28.1231 17.1877 28.4426 16.7842 28.6528 16.3218V7.19153H32.5874V20.9626H29.1068L28.7537 15.7669L28.905 16.8136C28.8041 17.5702 28.6024 18.2849 28.2997 18.9574C28.0054 19.63 27.5599 20.1807 26.963 20.6095C26.3744 21.0298 25.58 21.24 24.5795 21.24Z" fill="white"/>
<path d="M41.6063 21.1517C40.2107 21.1517 39.0211 20.8743 38.0374 20.3194C37.0538 19.7645 36.3013 18.9616 35.7801 17.9107C35.2588 16.8514 34.9982 15.5735 34.9982 14.077C34.9982 12.5301 35.2757 11.227 35.8305 10.1677C36.3854 9.09997 37.1673 8.29287 38.1762 7.7464C39.185 7.19993 40.3662 6.9267 41.7198 6.9267C43.0313 6.9267 44.1327 7.17471 45.0238 7.67074C45.9234 8.16677 46.6044 8.89819 47.0668 9.86502C47.5292 10.8319 47.7604 12.0215 47.7604 13.4339C47.7604 13.6104 47.752 13.8164 47.7352 14.0518C47.7268 14.2788 47.7141 14.5394 47.6973 14.8337H38.8445C38.937 15.9771 39.2144 16.8136 39.6768 17.3433C40.1392 17.8645 40.7866 18.1251 41.6189 18.1251C42.3083 18.1251 42.8296 17.9738 43.1827 17.6711C43.5442 17.3685 43.7585 16.9691 43.8258 16.4731H47.5838C47.5082 17.4231 47.2181 18.2512 46.7137 18.9574C46.2177 19.6552 45.5367 20.1975 44.6707 20.5842C43.8048 20.9626 42.7833 21.1517 41.6063 21.1517ZM40.4461 12.6268H43.9897C43.9561 11.744 43.7417 11.0841 43.3466 10.6469C42.9599 10.2097 42.363 9.99113 41.5559 9.99113C40.6058 9.99113 39.9122 10.3316 39.4751 11.0126C39.0379 11.6852 38.8151 12.6436 38.8067 13.8879C38.874 13.4087 39.0379 13.0808 39.2985 12.9042C39.5591 12.7193 39.9417 12.6268 40.4461 12.6268Z" fill="white"/>
<path d="M52.478 20.9626L48.5813 7.20414H52.6672L53.9157 13.787L54.6723 17.8351H54.7984L55.4542 13.787L56.7909 7.20414H61.6587L63.0081 13.787L63.6638 17.8729L63.7899 17.8603L64.5466 13.787L65.7951 7.20414H69.881L65.9842 20.9626H61.3308L59.931 14.8337L59.3131 10.8487H59.1618L58.5186 14.8337L57.144 20.9626H52.478Z" fill="white"/>
<path d="M71.7677 20.9626V7.20414H75.677V20.9626H71.7677ZM73.735 5.62778C73.0792 5.62778 72.5201 5.40079 72.0577 4.9468C71.5953 4.4844 71.3641 3.8959 71.3641 3.18128C71.3641 2.46667 71.5953 1.88657 72.0577 1.44099C72.5201 0.986995 73.0792 0.76 73.735 0.76C74.3823 0.76 74.9372 0.986995 75.3996 1.44099C75.862 1.88657 76.0932 2.46667 76.0932 3.18128C76.0932 3.8959 75.862 4.4844 75.3996 4.9468C74.9372 5.40079 74.3823 5.62778 73.735 5.62778Z" fill="white"/>
<path d="M83.8156 21.1769C82.6301 21.1769 81.6087 21.0046 80.7511 20.6599C79.902 20.3152 79.242 19.794 78.7712 19.0962C78.3004 18.39 78.0398 17.4946 77.9893 16.41H81.8104C81.8861 17.0826 82.1005 17.5787 82.4536 17.8981C82.8151 18.2176 83.2985 18.3773 83.9038 18.3773C84.2065 18.3773 84.4965 18.3437 84.774 18.2765C85.0514 18.2008 85.2784 18.0747 85.455 17.8981C85.6315 17.7132 85.7198 17.461 85.7198 17.1415C85.7198 16.8809 85.6525 16.6707 85.518 16.5109C85.3919 16.3428 85.2027 16.2041 84.9505 16.0948C84.7067 15.9771 84.4083 15.872 84.0552 15.7795C83.7021 15.6786 83.3027 15.5609 82.8571 15.4264C82.0669 15.191 81.327 14.9052 80.6376 14.5689C79.9566 14.2326 79.406 13.7828 78.9856 13.2195C78.5652 12.6562 78.3551 11.9164 78.3551 11C78.3551 9.62962 78.8553 8.61235 79.8558 7.94818C80.8646 7.28401 82.1846 6.95192 83.8156 6.95192C84.774 6.95192 85.6357 7.08223 86.4008 7.34286C87.1658 7.60348 87.7964 8.06588 88.2924 8.73005C88.7968 9.39422 89.1205 10.3316 89.2634 11.5423L85.4676 11.517C85.3919 10.979 85.2616 10.5796 85.0766 10.319C84.8917 10.05 84.6815 9.87343 84.4461 9.78936C84.2107 9.69688 83.9669 9.65064 83.7147 9.65064C83.4288 9.65064 83.1682 9.69688 82.9328 9.78936C82.7058 9.88184 82.525 10.0164 82.3905 10.1929C82.256 10.3695 82.1888 10.5922 82.1888 10.8613C82.1888 11.1808 82.2896 11.454 82.4914 11.681C82.6932 11.908 83.0001 12.1098 83.412 12.2863C83.824 12.4545 84.3494 12.6268 84.9884 12.8034C85.4087 12.9126 85.8795 13.0472 86.4008 13.2069C86.9304 13.3666 87.4349 13.5894 87.9141 13.8753C88.4017 14.1611 88.801 14.5478 89.1121 15.0355C89.4316 15.5231 89.5913 16.1536 89.5913 16.9271C89.5913 18.2723 89.0743 19.319 88.0402 20.0672C87.0061 20.807 85.5979 21.1769 83.8156 21.1769Z" fill="white"/>
<path d="M96.5647 21.1265C95.4886 21.1265 94.5638 20.8365 93.7903 20.2564C93.0169 19.6678 92.4242 18.8397 92.0122 17.772C91.6087 16.7043 91.4069 15.4516 91.4069 14.014C91.4069 12.5259 91.6339 11.2564 92.0879 10.2055C92.5419 9.14621 93.1766 8.33911 93.9921 7.78424C94.8076 7.22095 95.7492 6.93931 96.8169 6.93931C97.5063 6.93931 98.099 7.05701 98.5951 7.29241C99.0995 7.52782 99.5072 7.84309 99.8183 8.23823C100.129 8.63337 100.335 9.06634 100.436 9.53714L100.89 10.8234L100.272 11.7188C100.188 11.3993 100.045 11.1261 99.8435 10.8991C99.6502 10.6637 99.398 10.483 99.0869 10.3568C98.7842 10.2307 98.4227 10.1677 98.0024 10.1677C97.1532 10.1677 96.4933 10.4914 96.0225 11.1387C95.5601 11.7777 95.3289 12.7613 95.3289 14.0897C95.3289 15.3591 95.5516 16.3134 95.9972 16.9523C96.4512 17.5913 97.107 17.9107 97.9645 17.9107C98.3765 17.9107 98.7464 17.8519 99.0743 17.7342C99.4106 17.6081 99.6838 17.4567 99.894 17.2802C100.104 17.0952 100.23 16.9145 100.272 16.7379L100.424 16.9019L100.272 17.7342C100.155 18.2386 99.9949 18.701 99.7931 19.1214C99.5913 19.5333 99.3433 19.8906 99.0491 20.1933C98.7548 20.4876 98.4017 20.7188 97.9897 20.8869C97.5862 21.0466 97.1112 21.1265 96.5647 21.1265ZM100.285 20.9626L100.272 1.3401H104.182V20.9626H100.285Z" fill="white"/>
<path d="M113.222 21.1517C111.885 21.1517 110.725 20.8785 109.741 20.332C108.757 19.7856 107.992 18.9827 107.446 17.9234C106.908 16.8556 106.639 15.5483 106.639 14.0014C106.639 12.5385 106.925 11.2774 107.496 10.2181C108.068 9.15882 108.854 8.34752 109.855 7.78424C110.855 7.21255 111.994 6.9267 113.272 6.9267C114.651 6.9267 115.828 7.21255 116.803 7.78424C117.787 8.34752 118.539 9.15882 119.06 10.2181C119.59 11.2774 119.855 12.5385 119.855 14.0014C119.855 15.5483 119.565 16.8556 118.985 17.9234C118.405 18.9827 117.614 19.7856 116.614 20.332C115.614 20.8785 114.483 21.1517 113.222 21.1517ZM113.272 17.9107C114.037 17.9107 114.676 17.6291 115.189 17.0658C115.702 16.4941 115.958 15.4726 115.958 14.0014C115.958 12.631 115.689 11.6516 115.151 11.0631C114.621 10.4661 113.983 10.1677 113.234 10.1677C112.469 10.1677 111.83 10.4661 111.317 11.0631C110.805 11.6516 110.548 12.631 110.548 14.0014C110.548 15.4138 110.817 16.4185 111.355 17.0154C111.893 17.6123 112.532 17.9107 113.272 17.9107Z" fill="white"/>
<path d="M122.323 20.9626V7.20414H125.829L126.156 12.3872L126.005 11.3405C126.106 10.5838 126.291 9.86923 126.56 9.19665C126.837 8.51567 127.254 7.96499 127.808 7.54463C128.372 7.12427 129.133 6.91409 130.091 6.91409C131.176 6.91409 132.075 7.24197 132.79 7.89774C133.513 8.5535 133.954 9.57077 134.114 10.9496L134.164 11.6179V20.9626H130.23V13.3078C130.23 12.4334 130.154 11.7693 130.003 11.3153C129.86 10.8529 129.662 10.5376 129.41 10.3695C129.158 10.2013 128.864 10.1172 128.527 10.1172C127.989 10.1172 127.527 10.2896 127.14 10.6343C126.762 10.9706 126.467 11.3699 126.257 11.8323V20.9626H122.323ZM138.124 20.9626V13.3078C138.124 12.4334 138.048 11.7693 137.897 11.3153C137.754 10.8529 137.557 10.5376 137.304 10.3695C137.052 10.2013 136.758 10.1172 136.422 10.1172C135.884 10.1172 135.425 10.2896 135.047 10.6343C134.669 10.9706 134.374 11.3699 134.164 11.8323L134.076 12.3872L134.013 11.4162C134.089 10.7015 134.253 9.99954 134.505 9.31015C134.765 8.62076 135.169 8.04906 135.715 7.59507C136.27 7.14108 137.023 6.91409 137.973 6.91409C139.192 6.91409 140.175 7.32184 140.924 8.13734C141.68 8.94443 142.059 10.1803 142.059 11.8449V20.9626H138.124Z" fill="white"/>
</svg>
