<svg width="16" height="13" viewBox="0 0 16 13" fill="none" xmlns="http://www.w3.org/2000/svg">
<path d="M6.22327 6.66813L7.66993 6.66847C9.3268 6.66847 10.6699 8.0116 10.6699 9.66847L6.00259 9.66786L6.00325 10.3351L11.3366 10.3346V9.66847C11.3366 8.9468 11.1245 8.2664 10.7459 7.66793L12.6699 7.66846C13.9981 7.66846 15.1449 8.44527 15.6807 9.5694C14.1041 11.6498 11.5512 13.0018 8.66993 13.0018C6.82907 13.0018 5.26958 12.6081 4.00298 11.9186L4.00395 5.7158C4.83431 5.83473 5.59415 6.1722 6.22327 6.66813ZM2.66992 5.00178C3.01182 5.00178 3.2936 5.25914 3.33211 5.5907L3.33659 5.66786V11.6685C3.33659 12.0367 3.03812 12.3351 2.66992 12.3351H1.33659C0.968402 12.3351 0.669922 12.0367 0.669922 11.6685V5.66846C0.669922 5.30026 0.968402 5.00178 1.33659 5.00178H2.66992ZM9.10087 1.38537L9.3364 1.62122L9.57227 1.38537C10.2231 0.734498 11.2785 0.734498 11.9293 1.38537C12.5802 2.03625 12.5802 3.09152 11.9293 3.74239L9.3366 6.33513L6.74387 3.74239C6.09299 3.09152 6.09299 2.03625 6.74387 1.38537C7.39473 0.734498 8.45 0.734498 9.10087 1.38537Z" fill="white"/>
</svg>
