<svg width="96" height="14" viewBox="0 0 96 14" fill="none" xmlns="http://www.w3.org/2000/svg">
<path d="M3.09026 13.8103V4.7931C3.09026 4.44828 3.15338 4.19828 3.27963 4.0431C3.40588 3.88793 3.59813 3.79023 3.85637 3.75H0V1.27586H8.90063V3.75H5.82759V13.8103H3.09026Z" fill="white"/>
<path d="M9.38913 13.8103V4.40517H11.7821L12.006 8.08621L11.851 7.52586C11.9027 7.03161 11.9973 6.58333 12.1351 6.18103C12.2728 5.77299 12.4507 5.42241 12.6688 5.12931C12.8868 4.83621 13.1479 4.6092 13.4521 4.44828C13.762 4.28736 14.1149 4.2069 14.5109 4.2069C14.6256 4.2069 14.7404 4.21264 14.8552 4.22414C14.9757 4.23563 15.0819 4.25575 15.1737 4.28448V7.06897C14.9786 7.01724 14.7892 6.98276 14.6056 6.96552C14.4277 6.94253 14.2498 6.93103 14.0719 6.93103C13.7562 6.93103 13.4693 6.95977 13.2111 7.01724C12.9586 7.07471 12.7376 7.16379 12.5483 7.28448C12.3589 7.39943 12.2011 7.54885 12.0748 7.73276V13.8103H9.38913Z" fill="white"/>
<path d="M18.3781 14C17.5288 14 16.8689 13.7184 16.3983 13.1552C15.9277 12.5862 15.6924 11.7299 15.6924 10.5862V4.39655H18.3781V9.68966C18.3781 10.2701 18.424 10.7126 18.5159 11.0172C18.6134 11.3218 18.7483 11.5316 18.9204 11.6466C19.0926 11.7557 19.2992 11.8103 19.5402 11.8103C19.896 11.8103 20.2174 11.6954 20.5043 11.4655C20.797 11.2299 21.015 10.954 21.1585 10.6379V4.39655H23.8442V13.8103H21.4684L21.2274 10.2586L21.3307 10.9741C21.2618 11.4914 21.1241 11.9799 20.9175 12.4397C20.7166 12.8994 20.4125 13.2759 20.005 13.569C19.6033 13.8563 19.061 14 18.3781 14Z" fill="white"/>
<path d="M29.3117 13.9397C28.3591 13.9397 27.5471 13.75 26.8757 13.3707C26.2042 12.9914 25.6906 12.4425 25.3348 11.7241C24.979 11 24.8011 10.1264 24.8011 9.10345C24.8011 8.04598 24.9905 7.15517 25.3693 6.43103C25.748 5.70115 26.2817 5.14943 26.9703 4.77586C27.659 4.4023 28.4653 4.21552 29.3892 4.21552C30.2844 4.21552 31.0362 4.38506 31.6445 4.72414C32.2585 5.06322 32.7233 5.56322 33.039 6.22414C33.3546 6.88506 33.5124 7.69828 33.5124 8.66379C33.5124 8.78448 33.5067 8.92529 33.4952 9.08621C33.4894 9.24138 33.4808 9.41954 33.4694 9.62069H27.4266C27.4897 10.4023 27.6791 10.9741 27.9947 11.3362C28.3103 11.6925 28.7522 11.8707 29.3203 11.8707C29.7909 11.8707 30.1467 11.7672 30.3877 11.5603C30.6345 11.3534 30.7808 11.0805 30.8267 10.7414H33.3919C33.3402 11.3908 33.1423 11.9569 32.7979 12.4397C32.4594 12.9167 31.9945 13.2874 31.4034 13.5517C30.8124 13.8103 30.1151 13.9397 29.3117 13.9397ZM28.5198 8.11207H30.9386C30.9157 7.50862 30.7693 7.05747 30.4996 6.75862C30.2356 6.45977 29.8282 6.31035 29.2773 6.31035C28.6288 6.31035 28.1554 6.5431 27.857 7.00862C27.5586 7.46839 27.4065 8.12356 27.4007 8.97414C27.4467 8.64655 27.5586 8.42241 27.7365 8.30172C27.9144 8.17529 28.1755 8.11207 28.5198 8.11207Z" fill="white"/>
<path d="M36.569 13.8103L33.4443 1.27586H36.371L37.7053 8.16379L38.2045 11.6466H38.2562L38.7124 8.16379L39.8831 1.27586H43.5329L44.7122 8.16379L45.1684 11.6466H45.2114L45.7365 8.16379L47.088 1.27586H50.0147L46.8469 13.8103H43.3951L42.1814 7.01724L41.7338 3.76724H41.6822L41.2345 7.01724L40.0294 13.8103H36.569Z" fill="white"/>
<path d="M50.775 13.8103V4.40517H53.4435V13.8103H50.775ZM52.1178 3.32759C51.6702 3.32759 51.2886 3.17241 50.973 2.86207C50.6573 2.54598 50.4995 2.14368 50.4995 1.65517C50.4995 1.16667 50.6573 0.770115 50.973 0.465517C51.2886 0.155172 51.6702 0 52.1178 0C52.5597 0 52.9385 0.155172 53.2541 0.465517C53.5697 0.770115 53.7275 1.16667 53.7275 1.65517C53.7275 2.14368 53.5697 2.54598 53.2541 2.86207C52.9385 3.17241 52.5597 3.32759 52.1178 3.32759Z" fill="white"/>
<path d="M58.31 13.9569C57.5009 13.9569 56.8036 13.8391 56.2183 13.6034C55.6387 13.3678 55.1882 13.0115 54.8669 12.5345C54.5455 12.0517 54.3676 11.4397 54.3332 10.6983H56.9414C56.993 11.158 57.1394 11.4971 57.3804 11.7155C57.6271 11.9339 57.9571 12.0431 58.3703 12.0431C58.5769 12.0431 58.7749 12.0201 58.9642 11.9741C59.1536 11.9224 59.3086 11.8362 59.4291 11.7155C59.5496 11.5891 59.6098 11.4167 59.6098 11.1983C59.6098 11.0201 59.5639 10.8764 59.4721 10.7672C59.386 10.6523 59.2569 10.5575 59.0848 10.4828C58.9183 10.4023 58.7146 10.3305 58.4736 10.2672C58.2326 10.1983 57.96 10.1178 57.6558 10.0259C57.1164 9.86494 56.6114 9.66954 56.1408 9.43966C55.676 9.20977 55.3001 8.9023 55.0132 8.51724C54.7263 8.13218 54.5828 7.62644 54.5828 7C54.5828 6.06322 54.9242 5.36782 55.6071 4.91379C56.2958 4.45977 57.1967 4.23276 58.31 4.23276C58.9642 4.23276 59.5525 4.32184 60.0747 4.5C60.5969 4.67816 61.0273 4.99425 61.3659 5.44828C61.7102 5.9023 61.9311 6.5431 62.0287 7.37069L59.4377 7.35345C59.386 6.98563 59.2971 6.71264 59.1708 6.53448C59.0446 6.35057 58.9011 6.22989 58.7404 6.17241C58.5798 6.1092 58.4133 6.07759 58.2412 6.07759C58.0461 6.07759 57.8682 6.1092 57.7075 6.17241C57.5525 6.23563 57.4292 6.32759 57.3373 6.44828C57.2455 6.56897 57.1996 6.72126 57.1996 6.90517C57.1996 7.12356 57.2685 7.31035 57.4062 7.46552C57.5439 7.62069 57.7534 7.75862 58.0346 7.87931C58.3158 7.99425 58.6744 8.11207 59.1106 8.23276C59.3975 8.30747 59.7189 8.39943 60.0747 8.50862C60.4362 8.61782 60.7805 8.77012 61.1076 8.96552C61.4405 9.16092 61.7131 9.42529 61.9254 9.75862C62.1435 10.092 62.2525 10.523 62.2525 11.0517C62.2525 11.9713 61.8996 12.6868 61.1937 13.1983C60.4879 13.704 59.5266 13.9569 58.31 13.9569Z" fill="white"/>
<path d="M66.3238 13.9224C65.5892 13.9224 64.958 13.7241 64.43 13.3276C63.9021 12.9253 63.4975 12.3592 63.2163 11.6293C62.9409 10.8994 62.8031 10.0431 62.8031 9.06035C62.8031 8.0431 62.9581 7.17529 63.268 6.4569C63.5778 5.73276 64.0111 5.18103 64.5678 4.80172C65.1244 4.41667 65.7671 4.22414 66.4959 4.22414C66.9665 4.22414 67.3711 4.3046 67.7097 4.46552C68.054 4.62644 68.3323 4.84195 68.5446 5.11207C68.757 5.38218 68.8976 5.67816 68.9664 6L69.2763 6.87931L68.8545 7.49138C68.7971 7.27299 68.6996 7.08621 68.5619 6.93103C68.4299 6.77012 68.2577 6.64655 68.0454 6.56035C67.8388 6.47414 67.592 6.43103 67.3051 6.43103C66.7255 6.43103 66.275 6.6523 65.9536 7.09483C65.638 7.53161 65.4802 8.20402 65.4802 9.11207C65.4802 9.97989 65.6323 10.6322 65.9364 11.069C66.2463 11.5057 66.6939 11.7241 67.2793 11.7241C67.5605 11.7241 67.813 11.6839 68.0368 11.6034C68.2663 11.5172 68.4528 11.4138 68.5963 11.2931C68.7398 11.1667 68.8258 11.0431 68.8545 10.9224L68.9578 11.0345L68.8545 11.6034C68.7742 11.9483 68.6652 12.2644 68.5274 12.5517C68.3897 12.8333 68.2204 13.0776 68.0196 13.2845C67.8187 13.4856 67.5777 13.6437 67.2965 13.7586C67.021 13.8678 66.6968 13.9224 66.3238 13.9224ZM68.8631 13.8103L68.8545 0.396552H71.523V13.8103H68.8631Z" fill="white"/>
<path d="M77.0049 13.9397C76.0925 13.9397 75.3005 13.7529 74.6291 13.3793C73.9577 13.0057 73.4355 12.4569 73.0625 11.7328C72.6952 11.0029 72.5116 10.1092 72.5116 9.05172C72.5116 8.05172 72.7067 7.18966 73.0969 6.46552C73.4871 5.74138 74.0237 5.18678 74.7066 4.80172C75.3895 4.41092 76.1671 4.21552 77.0394 4.21552C77.9805 4.21552 78.7839 4.41092 79.4496 4.80172C80.121 5.18678 80.6346 5.74138 80.9904 6.46552C81.3519 7.18966 81.5327 8.05172 81.5327 9.05172C81.5327 10.1092 81.3347 11.0029 80.9388 11.7328C80.5428 12.4569 80.0034 13.0057 79.3205 13.3793C78.6376 13.7529 77.8657 13.9397 77.0049 13.9397ZM77.0394 11.7241C77.5616 11.7241 77.9977 11.5316 78.3478 11.1466C78.6978 10.7557 78.8728 10.0575 78.8728 9.05172C78.8728 8.11494 78.6892 7.4454 78.3219 7.0431C77.9604 6.63506 77.5243 6.43103 77.0135 6.43103C76.4913 6.43103 76.0552 6.63506 75.7051 7.0431C75.3551 7.4454 75.18 8.11494 75.18 9.05172C75.18 10.0172 75.3637 10.704 75.7309 11.1121C76.0982 11.5201 76.5344 11.7241 77.0394 11.7241Z" fill="white"/>
<path d="M82.5285 13.8103V4.40517H84.9216L85.1454 7.94828L85.0421 7.23276C85.1109 6.71552 85.2372 6.22701 85.4208 5.76724C85.6102 5.30172 85.8942 4.92529 86.273 4.63793C86.6575 4.35057 87.1768 4.2069 87.831 4.2069C88.5713 4.2069 89.1854 4.43103 89.6731 4.87931C90.1667 5.32759 90.4679 6.02299 90.577 6.96552L90.6114 7.42241V13.8103H87.9257V8.57759C87.9257 7.97989 87.8741 7.52586 87.7708 7.21552C87.6732 6.89943 87.5384 6.68391 87.3662 6.56897C87.1941 6.45402 86.9932 6.39655 86.7637 6.39655C86.3964 6.39655 86.0808 6.51437 85.8168 6.75C85.5585 6.97988 85.3577 7.25287 85.2142 7.56897V13.8103H82.5285ZM93.3143 13.8103V8.57759C93.3143 7.97989 93.2627 7.52586 93.1594 7.21552C93.0618 6.89943 92.927 6.68391 92.7548 6.56897C92.5826 6.45402 92.3818 6.39655 92.1522 6.39655C91.785 6.39655 91.4722 6.51437 91.214 6.75C90.9557 6.97988 90.7549 7.25287 90.6114 7.56897L90.5512 7.94828L90.5081 7.28448C90.5598 6.79598 90.6717 6.31609 90.8438 5.84483C91.0217 5.37356 91.2972 4.98276 91.6702 4.67241C92.0489 4.36207 92.5625 4.2069 93.211 4.2069C94.0431 4.2069 94.7145 4.48563 95.2253 5.0431C95.7418 5.59483 96 6.43966 96 7.57759V13.8103H93.3143Z" fill="white"/>
</svg>
