<svg width="1374" height="182" viewBox="0 0 1374 182" fill="none" xmlns="http://www.w3.org/2000/svg">
    <path d="M44.4833 198.187V69.3694C44.4833 64.4433 45.3864 60.8719 47.1927 58.6551C48.9989 56.4384 51.7493 55.0426 55.4439 54.4679H0.271484V19.1231H127.611V54.4679H83.6459V198.187H44.4833Z" fill="#321C4A"/>
    <path d="M134.6 198.187V63.8275H168.837L172.039 116.414L169.822 108.409C170.561 101.348 171.916 94.9441 173.886 89.197C175.856 83.3678 178.402 78.3595 181.521 74.1723C184.641 69.9851 188.377 66.7421 192.728 64.4433C197.162 62.1444 202.211 60.995 207.876 60.995C209.518 60.995 211.16 61.0771 212.802 61.2413C214.526 61.4055 216.045 61.6929 217.359 62.1034V101.882C214.567 101.143 211.858 100.65 209.231 100.404C206.686 100.075 204.141 99.9113 201.595 99.9113C197.08 99.9113 192.975 100.322 189.28 101.143C185.668 101.964 182.507 103.236 179.797 104.961C177.088 106.603 174.83 108.737 173.024 111.364V198.187H134.6Z" fill="#321C4A"/>
    <path d="M263.204 200.896C251.053 200.896 241.612 196.873 234.879 188.828C228.147 180.699 224.781 168.466 224.781 152.128V63.7044H263.204V139.32C263.204 147.612 263.861 153.934 265.175 158.286C266.571 162.637 268.5 165.634 270.963 167.276C273.426 168.836 276.382 169.616 279.83 169.616C284.92 169.616 289.518 167.974 293.623 164.69C297.81 161.323 300.93 157.383 302.983 152.867V63.7044H341.406V198.187H307.416L303.968 147.448L305.446 157.67C304.461 165.059 302.49 172.038 299.534 178.606C296.661 185.174 292.31 190.552 286.48 194.739C280.733 198.844 272.975 200.896 263.204 200.896Z" fill="#321C4A"/>
    <path d="M419.629 200.034C406.001 200.034 394.383 197.325 384.777 191.906C375.171 186.488 367.823 178.647 362.733 168.384C357.643 158.039 355.097 145.56 355.097 130.946C355.097 115.839 357.807 103.113 363.226 92.7684C368.644 82.3415 376.28 74.4597 386.132 69.1231C395.984 63.7865 407.519 61.1182 420.738 61.1182C433.546 61.1182 444.301 63.5402 453.004 68.3842C461.789 73.2282 468.439 80.371 472.955 89.8127C477.47 99.2544 479.728 110.872 479.728 124.665C479.728 126.389 479.646 128.401 479.482 130.699C479.4 132.916 479.276 135.461 479.112 138.335H392.659C393.562 149.501 396.272 157.67 400.787 162.842C405.303 167.933 411.625 170.478 419.753 170.478C426.485 170.478 431.575 169 435.024 166.044C438.554 163.089 440.648 159.189 441.304 154.345H478.004C477.265 163.622 474.432 171.709 469.506 178.606C464.662 185.42 458.012 190.716 449.556 194.493C441.099 198.187 431.124 200.034 419.629 200.034ZM408.299 116.783H442.905C442.577 108.162 440.483 101.717 436.625 97.4482C432.848 93.1789 427.019 91.0443 419.137 91.0443C409.859 91.0443 403.086 94.3694 398.817 101.02C394.547 107.588 392.372 116.947 392.29 129.098C392.946 124.419 394.547 121.217 397.093 119.493C399.638 117.686 403.373 116.783 408.299 116.783Z" fill="#321C4A"/>
    <path d="M523.459 198.187L478.754 19.1231H520.626L539.715 117.522L546.858 167.276H547.597L554.124 117.522L570.873 19.1231H623.089L639.961 117.522L646.488 167.276H647.104L654.616 117.522L673.951 19.1231H715.823L670.503 198.187H621.119L603.754 101.143L597.35 54.7142H596.611L590.208 101.143L572.966 198.187H523.459Z" fill="#321C4A"/>
    <path d="M726.701 198.187V63.8275H764.878V198.187H726.701ZM745.913 48.4334C739.509 48.4334 734.049 46.2167 729.534 41.7832C725.018 37.2676 722.76 31.5205 722.76 24.5418C722.76 17.5631 725.018 11.8981 729.534 7.54673C734.049 3.11323 739.509 0.896484 745.913 0.896484C752.235 0.896484 757.654 3.11323 762.169 7.54673C766.685 11.8981 768.943 17.5631 768.943 24.5418C768.943 31.5205 766.685 37.2676 762.169 41.7832C757.654 46.2167 752.235 48.4334 745.913 48.4334Z" fill="#321C4A"/>
    <path d="M834.504 200.281C822.928 200.281 812.952 198.598 804.578 195.231C796.286 191.865 789.841 186.775 785.243 179.961C780.645 173.064 778.1 164.32 777.607 153.729H814.923C815.662 160.297 817.755 165.141 821.203 168.261C824.734 171.381 829.455 172.941 835.366 172.941C838.322 172.941 841.154 172.612 843.864 171.956C846.573 171.217 848.79 169.985 850.514 168.261C852.238 166.455 853.1 163.992 853.1 160.872C853.1 158.327 852.443 156.274 851.13 154.714C849.898 153.072 848.051 151.717 845.588 150.65C843.207 149.501 840.292 148.474 836.844 147.571C833.396 146.586 829.496 145.437 825.144 144.123C817.427 141.824 810.202 139.033 803.469 135.749C796.819 132.465 791.442 128.072 787.336 122.571C783.231 117.071 781.179 109.846 781.179 100.896C781.179 87.5139 786.064 77.5796 795.834 71.0935C805.686 64.6075 818.576 61.3645 834.504 61.3645C843.864 61.3645 852.279 62.637 859.75 65.1822C867.221 67.7274 873.379 72.243 878.223 78.729C883.149 85.215 886.31 94.3694 887.706 106.192L850.637 105.946C849.898 100.691 848.625 96.7914 846.819 94.2462C845.013 91.619 842.96 89.8948 840.662 89.0738C838.363 88.1707 835.982 87.7191 833.519 87.7191C830.727 87.7191 828.182 88.1707 825.883 89.0738C823.667 89.9769 821.901 91.2906 820.588 93.0147C819.274 94.7388 818.617 96.9145 818.617 99.5418C818.617 102.662 819.602 105.33 821.573 107.547C823.543 109.763 826.54 111.734 830.563 113.458C834.586 115.1 839.717 116.783 845.957 118.507C850.062 119.575 854.66 120.888 859.75 122.448C864.923 124.008 869.849 126.184 874.529 128.975C879.29 131.767 883.19 135.543 886.228 140.305C889.348 145.067 890.908 151.225 890.908 158.778C890.908 171.915 885.859 182.136 875.76 189.443C865.662 196.668 851.91 200.281 834.504 200.281Z" fill="#321C4A"/>
    <path d="M949.155 199.788C938.646 199.788 929.615 196.956 922.062 191.291C914.508 185.543 908.72 177.456 904.697 167.029C900.756 156.603 898.786 144.369 898.786 130.33C898.786 115.798 901.003 103.401 905.436 93.1379C909.87 82.793 916.068 74.9113 924.032 69.4925C931.996 63.9917 941.191 61.2413 951.618 61.2413C958.351 61.2413 964.139 62.3907 968.983 64.6896C973.909 66.9884 977.891 70.0673 980.929 73.926C983.966 77.7848 985.978 82.0131 986.963 86.6108L991.397 99.1723L985.362 107.916C984.541 104.796 983.145 102.128 981.175 99.9113C979.287 97.6124 976.824 95.8472 973.786 94.6157C970.83 93.3842 967.3 92.7684 963.195 92.7684C954.902 92.7684 948.457 95.9293 943.86 102.251C939.344 108.491 937.086 118.097 937.086 131.069C937.086 143.466 939.262 152.785 943.613 159.025C948.047 165.264 954.451 168.384 962.825 168.384C966.848 168.384 970.461 167.809 973.663 166.66C976.947 165.428 979.615 163.951 981.668 162.227C983.72 160.42 984.952 158.655 985.362 156.931L986.84 158.532L985.362 166.66C984.213 171.586 982.653 176.102 980.682 180.207C978.712 184.23 976.29 187.719 973.416 190.675C970.543 193.548 967.095 195.806 963.072 197.448C959.131 199.008 954.492 199.788 949.155 199.788ZM985.485 198.187L985.362 6.56151H1023.54V198.187H985.485Z" fill="#321C4A"/>
    <path d="M1101.97 200.034C1088.91 200.034 1077.58 197.366 1067.98 192.029C1058.37 186.693 1050.9 178.852 1045.56 168.507C1040.31 158.08 1037.68 145.314 1037.68 130.207C1037.68 115.921 1040.47 103.606 1046.06 93.261C1051.64 82.9162 1059.32 74.9934 1069.09 69.4925C1078.86 63.9096 1089.98 61.1182 1102.46 61.1182C1115.93 61.1182 1127.42 63.9096 1136.94 69.4925C1146.55 74.9934 1153.9 82.9162 1158.99 93.261C1164.16 103.606 1166.75 115.921 1166.75 130.207C1166.75 145.314 1163.91 158.08 1158.25 168.507C1152.58 178.852 1144.87 186.693 1135.1 192.029C1125.33 197.366 1114.28 200.034 1101.97 200.034ZM1102.46 168.384C1109.93 168.384 1116.17 165.634 1121.18 160.133C1126.19 154.55 1128.69 144.575 1128.69 130.207C1128.69 116.824 1126.07 107.259 1120.81 101.512C1115.64 95.683 1109.4 92.7684 1102.09 92.7684C1094.62 92.7684 1088.38 95.683 1083.37 101.512C1078.36 107.259 1075.86 116.824 1075.86 130.207C1075.86 144 1078.49 153.811 1083.74 159.64C1089 165.47 1095.24 168.384 1102.46 168.384Z" fill="#321C4A"/>
    <path d="M1180.99 198.187V63.8275H1215.23L1218.43 114.443L1216.95 104.222C1217.94 96.8324 1219.75 89.8538 1222.37 83.2856C1225.08 76.6354 1229.15 71.2577 1234.57 67.1526C1240.07 63.0476 1247.5 60.995 1256.86 60.995C1267.45 60.995 1276.23 64.197 1283.21 70.6009C1290.27 77.0049 1294.58 86.9392 1296.14 100.404L1296.63 106.931V198.187H1258.21V123.433C1258.21 114.895 1257.47 108.409 1255.99 103.975C1254.6 99.4597 1252.67 96.3809 1250.21 94.7388C1247.74 93.0968 1244.87 92.2758 1241.59 92.2758C1236.33 92.2758 1231.82 93.9589 1228.04 97.3251C1224.34 100.609 1221.47 104.509 1219.42 109.025V198.187H1180.99ZM1335.3 198.187V123.433C1335.3 114.895 1334.57 108.409 1333.09 103.975C1331.69 99.4597 1329.76 96.3809 1327.3 94.7388C1324.84 93.0968 1321.96 92.2758 1318.68 92.2758C1313.42 92.2758 1308.95 93.9589 1305.26 97.3251C1301.56 100.609 1298.69 104.509 1296.63 109.025L1295.77 114.443L1295.16 104.961C1295.9 97.9819 1297.5 91.1264 1299.96 84.394C1302.5 77.6617 1306.45 72.0788 1311.78 67.6452C1317.2 63.2118 1324.55 60.995 1333.83 60.995C1345.73 60.995 1355.34 64.9769 1362.64 72.9408C1370.03 80.8226 1373.73 92.8916 1373.73 109.148V198.187H1335.3Z" fill="#321C4A"/>
</svg>
