<svg width="14" height="14" viewBox="0 0 14 14" fill="none" xmlns="http://www.w3.org/2000/svg">
<path d="M3.86143 12.883L0.333984 13.6668L1.11786 10.1394C0.617611 9.2039 0.333984 8.13516 0.333984 7.00016C0.333984 3.31826 3.31875 0.333496 7.00065 0.333496C10.6825 0.333496 13.6673 3.31826 13.6673 7.00016C13.6673 10.682 10.6825 13.6668 7.00065 13.6668C5.86565 13.6668 4.79692 13.3832 3.86143 12.883ZM3.66732 7.00016C3.66732 8.8411 5.1597 10.3335 7.00065 10.3335C8.84158 10.3335 10.334 8.8411 10.334 7.00016H9.00065C9.00065 8.10476 8.10525 9.00016 7.00065 9.00016C5.89605 9.00016 5.00065 8.10476 5.00065 7.00016H3.66732Z" fill="white"/>
</svg>
