<svg width="143" height="21" viewBox="0 0 143 21" fill="none" xmlns="http://www.w3.org/2000/svg">
<path d="M5.10739 20.6265C3.97241 20.6265 3.08965 20.3407 2.45911 19.769C1.82857 19.1889 1.5091 18.2935 1.50069 17.0829L1.46286 10.9288C1.46286 10.6093 1.55113 10.3487 1.72768 10.1469C1.91264 9.94512 2.16906 9.81481 2.49695 9.75596L1.46286 7.2464V6.83025L2.18167 2.75695H5.37222V15.8722C5.37222 16.4607 5.44368 16.8685 5.5866 17.0955C5.73793 17.3225 6.02378 17.436 6.44414 17.436C6.8645 17.436 7.2134 17.4276 7.49084 17.4107C7.77668 17.3939 8.04571 17.3645 8.29793 17.3225V20.4121C7.99527 20.5214 7.54128 20.5845 6.93596 20.6013C6.33905 20.6181 5.72952 20.6265 5.10739 20.6265ZM0 9.75596V6.70414H8.20965V9.75596H0Z" fill="white"/>
<path d="M10.4016 20.4626V6.70414H13.9074L14.2353 12.089L14.0083 11.2693C14.0839 10.5462 14.2227 9.89048 14.4244 9.30197C14.6262 8.70506 14.8868 8.19222 15.2063 7.76345C15.5258 7.33468 15.9083 7.00259 16.3539 6.76719C16.8079 6.53179 17.3249 6.41409 17.905 6.41409C18.0732 6.41409 18.2413 6.4225 18.4095 6.43931C18.586 6.45613 18.7415 6.48555 18.8761 6.52759V10.6009C18.5902 10.5252 18.3128 10.4748 18.0437 10.4496C17.7831 10.4159 17.5225 10.3991 17.2619 10.3991C16.7995 10.3991 16.3791 10.4412 16.0008 10.5252C15.6309 10.6093 15.3072 10.7396 15.0298 10.9162C14.7523 11.0843 14.5211 11.3029 14.3362 11.5719V20.4626H10.4016Z" fill="white"/>
<path d="M24.5795 20.74C23.3352 20.74 22.3684 20.328 21.679 19.5041C20.9896 18.6718 20.6449 17.4191 20.6449 15.7461V6.69153H24.5795V14.4346C24.5795 15.2837 24.6468 15.9311 24.7813 16.3767C24.9242 16.8222 25.1218 17.1291 25.374 17.2972C25.6262 17.457 25.9289 17.5368 26.282 17.5368C26.8032 17.5368 27.274 17.3687 27.6944 17.0324C28.1231 16.6877 28.4426 16.2842 28.6528 15.8218V6.69153H32.5874V20.4626H29.1068L28.7537 15.2669L28.905 16.3136C28.8041 17.0702 28.6024 17.7849 28.2997 18.4574C28.0054 19.13 27.5599 19.6807 26.963 20.1095C26.3744 20.5298 25.58 20.74 24.5795 20.74Z" fill="white"/>
<path d="M41.6063 20.6517C40.2107 20.6517 39.0211 20.3743 38.0374 19.8194C37.0538 19.2645 36.3013 18.4616 35.7801 17.4107C35.2588 16.3514 34.9982 15.0735 34.9982 13.577C34.9982 12.0301 35.2757 10.727 35.8305 9.66768C36.3854 8.59997 37.1673 7.79287 38.1762 7.2464C39.185 6.69993 40.3662 6.4267 41.7198 6.4267C43.0313 6.4267 44.1327 6.67471 45.0238 7.17074C45.9234 7.66677 46.6044 8.39819 47.0668 9.36502C47.5292 10.3319 47.7604 11.5215 47.7604 12.9339C47.7604 13.1104 47.752 13.3164 47.7352 13.5518C47.7268 13.7788 47.7141 14.0394 47.6973 14.3337H38.8445C38.937 15.4771 39.2144 16.3136 39.6768 16.8433C40.1392 17.3645 40.7866 17.6251 41.6189 17.6251C42.3083 17.6251 42.8296 17.4738 43.1827 17.1711C43.5442 16.8685 43.7585 16.4691 43.8258 15.9731H47.5838C47.5082 16.9231 47.2181 17.7512 46.7137 18.4574C46.2177 19.1552 45.5367 19.6975 44.6707 20.0842C43.8048 20.4626 42.7833 20.6517 41.6063 20.6517ZM40.4461 12.1268H43.9897C43.9561 11.244 43.7417 10.5841 43.3466 10.1469C42.9599 9.70972 42.363 9.49113 41.5559 9.49113C40.6058 9.49113 39.9122 9.83163 39.4751 10.5126C39.0379 11.1852 38.8151 12.1436 38.8067 13.3879C38.874 12.9087 39.0379 12.5808 39.2985 12.4042C39.5591 12.2193 39.9417 12.1268 40.4461 12.1268Z" fill="white"/>
<path d="M52.478 20.4626L48.5813 6.70414H52.6672L53.9157 13.287L54.6723 17.3351H54.7984L55.4542 13.287L56.7909 6.70414H61.6587L63.0081 13.287L63.6638 17.3729L63.7899 17.3603L64.5466 13.287L65.7951 6.70414H69.881L65.9842 20.4626H61.3308L59.931 14.3337L59.3131 10.3487H59.1618L58.5186 14.3337L57.144 20.4626H52.478Z" fill="white"/>
<path d="M71.7677 20.4626V6.70414H75.677V20.4626H71.7677ZM73.735 5.12778C73.0792 5.12778 72.5201 4.90079 72.0577 4.4468C71.5953 3.9844 71.3641 3.3959 71.3641 2.68128C71.3641 1.96667 71.5953 1.38657 72.0577 0.940986C72.5201 0.486995 73.0792 0.26 73.735 0.26C74.3823 0.26 74.9372 0.486995 75.3996 0.940986C75.862 1.38657 76.0932 1.96667 76.0932 2.68128C76.0932 3.3959 75.862 3.9844 75.3996 4.4468C74.9372 4.90079 74.3823 5.12778 73.735 5.12778Z" fill="white"/>
<path d="M83.8156 20.6769C82.6301 20.6769 81.6087 20.5046 80.7511 20.1599C79.902 19.8152 79.242 19.294 78.7712 18.5962C78.3004 17.89 78.0398 16.9946 77.9893 15.91H81.8104C81.8861 16.5826 82.1005 17.0787 82.4536 17.3981C82.8151 17.7176 83.2985 17.8773 83.9038 17.8773C84.2065 17.8773 84.4965 17.8437 84.774 17.7765C85.0514 17.7008 85.2784 17.5747 85.455 17.3981C85.6315 17.2132 85.7198 16.961 85.7198 16.6415C85.7198 16.3809 85.6525 16.1707 85.518 16.0109C85.3919 15.8428 85.2027 15.7041 84.9505 15.5948C84.7067 15.4771 84.4083 15.372 84.0552 15.2795C83.7021 15.1786 83.3027 15.0609 82.8571 14.9264C82.0669 14.691 81.327 14.4052 80.6376 14.0689C79.9566 13.7326 79.406 13.2828 78.9856 12.7195C78.5652 12.1562 78.3551 11.4164 78.3551 10.5C78.3551 9.12962 78.8553 8.11235 79.8558 7.44818C80.8646 6.78401 82.1846 6.45192 83.8156 6.45192C84.774 6.45192 85.6357 6.58223 86.4008 6.84286C87.1658 7.10348 87.7964 7.56588 88.2924 8.23005C88.7968 8.89422 89.1205 9.83163 89.2634 11.0423L85.4676 11.017C85.3919 10.479 85.2616 10.0796 85.0766 9.81902C84.8917 9.54998 84.6815 9.37343 84.4461 9.28936C84.2107 9.19688 83.9669 9.15064 83.7147 9.15064C83.4288 9.15064 83.1682 9.19688 82.9328 9.28936C82.7058 9.38184 82.525 9.51636 82.3905 9.69291C82.256 9.86946 82.1888 10.0922 82.1888 10.3613C82.1888 10.6808 82.2896 10.954 82.4914 11.181C82.6932 11.408 83.0001 11.6098 83.412 11.7863C83.824 11.9545 84.3494 12.1268 84.9884 12.3034C85.4087 12.4126 85.8795 12.5472 86.4008 12.7069C86.9304 12.8666 87.4349 13.0894 87.9141 13.3753C88.4017 13.6611 88.801 14.0478 89.1121 14.5355C89.4316 15.0231 89.5913 15.6536 89.5913 16.4271C89.5913 17.7723 89.0743 18.819 88.0402 19.5672C87.0061 20.307 85.5979 20.6769 83.8156 20.6769Z" fill="white"/>
<path d="M96.5647 20.6265C95.4886 20.6265 94.5638 20.3365 93.7903 19.7564C93.0169 19.1678 92.4242 18.3397 92.0122 17.272C91.6087 16.2043 91.4069 14.9516 91.4069 13.514C91.4069 12.0259 91.6339 10.7564 92.0879 9.70552C92.5419 8.64621 93.1766 7.83911 93.9921 7.28424C94.8076 6.72095 95.7492 6.43931 96.8169 6.43931C97.5063 6.43931 98.099 6.55701 98.5951 6.79241C99.0995 7.02782 99.5072 7.34309 99.8183 7.73823C100.129 8.13337 100.335 8.56634 100.436 9.03714L100.89 10.3234L100.272 11.2188C100.188 10.8993 100.045 10.6261 99.8435 10.3991C99.6502 10.1637 99.398 9.98296 99.0869 9.85685C98.7842 9.73074 98.4227 9.66768 98.0024 9.66768C97.1532 9.66768 96.4933 9.99136 96.0225 10.6387C95.5601 11.2777 95.3289 12.2613 95.3289 13.5897C95.3289 14.8591 95.5516 15.8134 95.9972 16.4523C96.4512 17.0913 97.107 17.4107 97.9645 17.4107C98.3765 17.4107 98.7464 17.3519 99.0743 17.2342C99.4106 17.1081 99.6838 16.9567 99.894 16.7802C100.104 16.5952 100.23 16.4145 100.272 16.2379L100.424 16.4019L100.272 17.2342C100.155 17.7386 99.9949 18.201 99.7931 18.6214C99.5913 19.0333 99.3433 19.3906 99.0491 19.6933C98.7548 19.9876 98.4017 20.2188 97.9897 20.3869C97.5862 20.5466 97.1112 20.6265 96.5647 20.6265ZM100.285 20.4626L100.272 0.840099H104.182V20.4626H100.285Z" fill="white"/>
<path d="M113.222 20.6517C111.885 20.6517 110.725 20.3785 109.741 19.832C108.757 19.2856 107.992 18.4827 107.446 17.4234C106.908 16.3556 106.639 15.0483 106.639 13.5014C106.639 12.0385 106.925 10.7774 107.496 9.71813C108.068 8.65882 108.854 7.84752 109.855 7.28424C110.855 6.71255 111.994 6.4267 113.272 6.4267C114.651 6.4267 115.828 6.71255 116.803 7.28424C117.787 7.84752 118.539 8.65882 119.06 9.71813C119.59 10.7774 119.855 12.0385 119.855 13.5014C119.855 15.0483 119.565 16.3556 118.985 17.4234C118.405 18.4827 117.614 19.2856 116.614 19.832C115.614 20.3785 114.483 20.6517 113.222 20.6517ZM113.272 17.4107C114.037 17.4107 114.676 17.1291 115.189 16.5658C115.702 15.9941 115.958 14.9726 115.958 13.5014C115.958 12.131 115.689 11.1516 115.151 10.5631C114.621 9.96614 113.983 9.66768 113.234 9.66768C112.469 9.66768 111.83 9.96614 111.317 10.5631C110.805 11.1516 110.548 12.131 110.548 13.5014C110.548 14.9138 110.817 15.9185 111.355 16.5154C111.893 17.1123 112.532 17.4107 113.272 17.4107Z" fill="white"/>
<path d="M122.323 20.4626V6.70414H125.829L126.156 11.8872L126.005 10.8405C126.106 10.0838 126.291 9.36923 126.56 8.69665C126.837 8.01567 127.254 7.46499 127.808 7.04463C128.372 6.62427 129.133 6.41409 130.091 6.41409C131.176 6.41409 132.075 6.74197 132.79 7.39774C133.513 8.0535 133.954 9.07077 134.114 10.4496L134.164 11.1179V20.4626H130.23V12.8078C130.23 11.9334 130.154 11.2693 130.003 10.8153C129.86 10.3529 129.662 10.0376 129.41 9.86946C129.158 9.70131 128.864 9.61724 128.527 9.61724C127.989 9.61724 127.527 9.78959 127.14 10.1343C126.762 10.4706 126.467 10.8699 126.257 11.3323V20.4626H122.323ZM138.124 20.4626V12.8078C138.124 11.9334 138.048 11.2693 137.897 10.8153C137.754 10.3529 137.557 10.0376 137.304 9.86946C137.052 9.70131 136.758 9.61724 136.422 9.61724C135.884 9.61724 135.425 9.78959 135.047 10.1343C134.669 10.4706 134.374 10.8699 134.164 11.3323L134.076 11.8872L134.013 10.9162C134.089 10.2015 134.253 9.49954 134.505 8.81015C134.765 8.12076 135.169 7.54906 135.715 7.09507C136.27 6.64108 137.023 6.41409 137.973 6.41409C139.192 6.41409 140.175 6.82184 140.924 7.63734C141.68 8.44443 142.059 9.6803 142.059 11.3449V20.4626H138.124Z" fill="white"/>
</svg>
