<svg width="141" height="21" viewBox="0 0 141 21" fill="none" xmlns="http://www.w3.org/2000/svg">
<path d="M4.52623 20.4602V7.27238C4.52623 6.76807 4.61869 6.40244 4.80361 6.17549C4.98852 5.94855 5.2701 5.80566 5.64833 5.74683H0V2.12836H13.0366V5.74683H8.53554V20.4602H4.52623Z" fill="white"/>
<path d="M13.7521 20.4602V6.70503H17.257L17.5849 12.0886L17.3579 11.2691C17.4336 10.5462 17.5722 9.89062 17.774 9.30225C17.9757 8.70548 18.2363 8.19276 18.5557 7.76409C18.8751 7.33542 19.2575 7.00341 19.703 6.76806C20.1569 6.53272 20.6738 6.41504 21.2537 6.41504C21.4219 6.41504 21.59 6.42345 21.7581 6.44026C21.9346 6.45707 22.0901 6.48649 22.2246 6.52852V10.6009C21.9388 10.5252 21.6614 10.4748 21.3924 10.4496C21.1319 10.4159 20.8713 10.3991 20.6107 10.3991C20.1485 10.3991 19.7282 10.4412 19.35 10.5252C18.9801 10.6093 18.6565 10.7395 18.3792 10.9161C18.1018 11.0842 17.8706 11.3027 17.6857 11.5717V20.4602H13.7521Z" fill="white"/>
<path d="M26.918 20.7376C25.6741 20.7376 24.7075 20.3257 24.0182 19.502C23.329 18.6699 22.9844 17.4175 22.9844 15.7449V6.69242H26.918V14.4337C26.918 15.2826 26.9853 15.9298 27.1198 16.3753C27.2627 16.8208 27.4602 17.1275 27.7123 17.2957C27.9645 17.4554 28.2671 17.5352 28.6201 17.5352C29.1412 17.5352 29.6119 17.3671 30.0322 17.0309C30.4609 16.6863 30.7803 16.2828 30.9904 15.8205V6.69242H34.924V20.4602H31.4443L31.0912 15.2658L31.2425 16.3122C31.1417 17.0687 30.94 17.7832 30.6374 18.4556C30.3432 19.128 29.8977 19.6785 29.3009 20.1072C28.7126 20.5275 27.9183 20.7376 26.918 20.7376Z" fill="white"/>
<path d="M42.9322 20.6494C41.5369 20.6494 40.3476 20.372 39.3642 19.8172C38.3808 19.2625 37.6285 18.4598 37.1074 17.4091C36.5863 16.3501 36.3257 15.0725 36.3257 13.5763C36.3257 12.0298 36.6031 10.7269 37.1578 9.66788C37.7126 8.60041 38.4942 7.79351 39.5029 7.24716C40.5115 6.70082 41.6924 6.42765 43.0457 6.42765C44.3569 6.42765 45.458 6.67561 46.349 7.17152C47.2483 7.66743 47.9291 8.39868 48.3914 9.36529C48.8537 10.3319 49.0849 11.5212 49.0849 12.9333C49.0849 13.1098 49.0765 13.3158 49.0597 13.5511C49.0512 13.7781 49.0386 14.0386 49.0218 14.3328H40.1711C40.2636 15.4759 40.5409 16.3122 41.0032 16.8418C41.4655 17.3629 42.1127 17.6235 42.9448 17.6235C43.6341 17.6235 44.1552 17.4722 44.5082 17.1696C44.8696 16.867 45.084 16.4677 45.1512 15.9718H48.9084C48.8327 16.9216 48.5427 17.7495 48.0384 18.4556C47.5425 19.1532 46.8617 19.6954 45.9959 20.082C45.1302 20.4602 44.109 20.6494 42.9322 20.6494ZM41.7723 12.1264H45.3151C45.2815 11.2439 45.0672 10.5841 44.6721 10.147C44.2855 9.70991 43.6887 9.49137 42.8818 9.49137C41.932 9.49137 41.2386 9.83178 40.8015 10.5126C40.3644 11.185 40.1417 12.1432 40.1333 13.3872C40.2005 12.9081 40.3644 12.5803 40.625 12.4038C40.8855 12.2189 41.268 12.1264 41.7723 12.1264Z" fill="white"/>
<path d="M53.5619 20.4602L48.9852 2.12836H53.2719L55.2261 12.2021L55.9574 17.2957H56.033L56.7012 12.2021L58.4159 2.12836H63.7616L65.4889 12.2021L66.1571 17.2957H66.2202L66.9893 12.2021L68.9687 2.12836H73.2554L68.6157 20.4602H63.5599L61.7822 10.5252L61.1266 5.77204H61.0509L60.3953 10.5252L58.6302 20.4602H53.5619Z" fill="white"/>
<path d="M74.369 20.4602V6.70503H78.2775V20.4602H74.369ZM76.3358 5.12904C75.6802 5.12904 75.1213 4.9021 74.659 4.44821C74.1967 3.98592 73.9656 3.39756 73.9656 2.68311C73.9656 1.96866 74.1967 1.3887 74.659 0.94322C75.1213 0.489336 75.6802 0.262394 76.3358 0.262394C76.983 0.262394 77.5378 0.489336 78.0001 0.94322C78.4624 1.3887 78.6935 1.96866 78.6935 2.68311C78.6935 3.39756 78.4624 3.98592 78.0001 4.44821C77.5378 4.9021 76.983 5.12904 76.3358 5.12904Z" fill="white"/>
<path d="M85.4054 20.6746C84.2203 20.6746 83.1991 20.5023 82.3417 20.1576C81.4928 19.813 80.833 19.2919 80.3623 18.5943C79.8916 17.8882 79.631 16.9931 79.5806 15.9088H83.4008C83.4764 16.5812 83.6908 17.0771 84.0438 17.3965C84.4052 17.7159 84.8885 17.8756 85.4937 17.8756C85.7963 17.8756 86.0863 17.842 86.3636 17.7748C86.641 17.6991 86.868 17.573 87.0445 17.3965C87.221 17.2116 87.3092 16.9594 87.3092 16.64C87.3092 16.3795 87.242 16.1693 87.1075 16.0096C86.9814 15.8415 86.7923 15.7029 86.5401 15.5936C86.2964 15.4759 85.998 15.3708 85.645 15.2784C85.292 15.1775 84.8927 15.0599 84.4472 14.9254C83.6571 14.69 82.9175 14.4042 82.2282 14.068C81.5474 13.7318 80.9969 13.2821 80.5766 12.719C80.1564 12.1558 79.9462 11.4162 79.9462 10.5C79.9462 9.12994 80.4463 8.11291 81.4466 7.44889C82.4552 6.78488 83.7748 6.45287 85.4054 6.45287C86.3636 6.45287 87.2252 6.58315 87.9901 6.84371C88.7549 7.10428 89.3853 7.56656 89.8812 8.23058C90.3856 8.8946 90.7092 9.83178 90.852 11.0421L87.0571 11.0169C86.9814 10.479 86.8511 10.0797 86.6662 9.81917C86.4813 9.55021 86.2712 9.3737 86.0358 9.28964C85.8005 9.19719 85.5567 9.15096 85.3046 9.15096C85.0188 9.15096 84.7582 9.19719 84.5229 9.28964C84.2959 9.3821 84.1152 9.51658 83.9807 9.6931C83.8463 9.86961 83.779 10.0923 83.779 10.3613C83.779 10.6807 83.8799 10.9539 84.0816 11.1808C84.2833 11.4078 84.5901 11.6095 85.002 11.786C85.4138 11.9541 85.9392 12.1264 86.578 12.3029C86.9982 12.4122 87.4689 12.5467 87.9901 12.7064C88.5196 12.8661 89.0239 13.0888 89.503 13.3746C89.9905 13.6604 90.3898 14.047 90.7008 14.5345C91.0202 15.022 91.1798 15.6524 91.1798 16.4257C91.1798 17.7706 90.6629 18.817 89.6291 19.5651C88.5952 20.3047 87.1874 20.6746 85.4054 20.6746Z" fill="white"/>
<path d="M97.143 20.6241C96.0671 20.6241 95.1425 20.3342 94.3693 19.7542C93.596 19.1658 93.0034 18.3379 92.5915 17.2704C92.1881 16.203 91.9864 14.9506 91.9864 13.5133C91.9864 12.0256 92.2133 10.7564 92.6672 9.7057C93.1211 8.64664 93.7557 7.83974 94.571 7.28499C95.3863 6.72184 96.3277 6.44026 97.3951 6.44026C98.0844 6.44026 98.6769 6.55793 99.1729 6.79328C99.6772 7.02863 100.085 7.34383 100.396 7.73887C100.707 8.13392 100.913 8.56679 101.014 9.03749L101.467 10.3235L100.85 11.2186C100.766 10.8993 100.623 10.6261 100.421 10.3991C100.228 10.1638 99.9756 9.98308 99.6646 9.857C99.362 9.73092 99.0006 9.66788 98.5803 9.66788C97.7314 9.66788 97.0715 9.99148 96.6009 10.6387C96.1386 11.2775 95.9074 12.2609 95.9074 13.5889C95.9074 14.8581 96.1302 15.8121 96.5756 16.4509C97.0295 17.0897 97.6851 17.4091 98.5425 17.4091C98.9543 17.4091 99.3242 17.3503 99.652 17.2326C99.9882 17.1065 100.261 16.9552 100.471 16.7787C100.682 16.5938 100.808 16.4131 100.85 16.2366L101.001 16.4005L100.85 17.2326C100.732 17.7369 100.572 18.1992 100.371 18.6195C100.169 19.0313 99.9209 19.3886 99.6267 19.6912C99.3326 19.9853 98.9795 20.2165 98.5677 20.3846C98.1642 20.5443 97.6893 20.6241 97.143 20.6241ZM100.862 20.4602L100.85 0.842357H104.758V20.4602H100.862Z" fill="white"/>
<path d="M112.787 20.6494C111.451 20.6494 110.291 20.3762 109.308 19.8298C108.324 19.2835 107.559 18.4808 107.013 17.4217C106.475 16.3543 106.206 15.0472 106.206 13.5007C106.206 12.0382 106.492 10.7774 107.063 9.71831C107.635 8.65925 108.421 7.84814 109.421 7.28499C110.421 6.71343 111.56 6.42765 112.838 6.42765C114.216 6.42765 115.393 6.71343 116.368 7.28499C117.351 7.84814 118.104 8.65925 118.625 9.71831C119.154 10.7774 119.419 12.0382 119.419 13.5007C119.419 15.0472 119.129 16.3543 118.549 17.4217C117.969 18.4808 117.179 19.2835 116.179 19.8298C115.179 20.3762 114.048 20.6494 112.787 20.6494ZM112.838 17.4091C113.603 17.4091 114.242 17.1275 114.754 16.5644C115.267 15.9928 115.523 14.9716 115.523 13.5007C115.523 12.1306 115.254 11.1514 114.716 10.563C114.187 9.96627 113.548 9.66788 112.8 9.66788C112.035 9.66788 111.396 9.96627 110.884 10.563C110.371 11.1514 110.115 12.1306 110.115 13.5007C110.115 14.9128 110.384 15.9172 110.921 16.514C111.459 17.1107 112.098 17.4091 112.838 17.4091Z" fill="white"/>
<path d="M120.878 20.4602V6.70503H124.383L124.711 11.8869L124.559 10.8404C124.66 10.0839 124.845 9.36949 125.114 8.69707C125.391 8.01625 125.807 7.4657 126.362 7.04544C126.925 6.62518 127.686 6.41504 128.644 6.41504C129.728 6.41504 130.628 6.74285 131.342 7.39846C132.065 8.05407 132.506 9.07111 132.666 10.4496L132.717 11.1178V20.4602H128.783V12.8072C128.783 11.9331 128.707 11.2691 128.556 10.8152C128.413 10.3529 128.216 10.0377 127.963 9.86961C127.711 9.7015 127.417 9.61745 127.081 9.61745C126.543 9.61745 126.081 9.78976 125.694 10.1344C125.316 10.4706 125.022 10.8698 124.811 11.3321V20.4602H120.878ZM136.675 20.4602V12.8072C136.675 11.9331 136.6 11.2691 136.448 10.8152C136.306 10.3529 136.108 10.0377 135.856 9.86961C135.604 9.7015 135.31 9.61745 134.973 9.61745C134.435 9.61745 133.977 9.78976 133.599 10.1344C133.221 10.4706 132.927 10.8698 132.717 11.3321L132.628 11.8869L132.565 10.9161C132.641 10.2016 132.805 9.49977 133.057 8.81054C133.318 8.12131 133.721 7.54975 134.267 7.09587C134.822 6.64199 135.574 6.41504 136.524 6.41504C137.743 6.41504 138.726 6.8227 139.474 7.63801C140.231 8.44491 140.609 9.68049 140.609 11.3447V20.4602H136.675Z" fill="white"/>
</svg>
