<svg width="157" height="23" viewBox="0 0 157 23" fill="none" xmlns="http://www.w3.org/2000/svg">
<path d="M5.9255 22.4389V7.88676C5.9255 7.33028 6.02752 6.92683 6.23156 6.67641C6.43561 6.42599 6.74631 6.26832 7.16368 6.20339H0.931034V2.21061H15.3162V6.20339H10.3496V22.4389H5.9255Z" fill="#321C4A"/>
<path d="M16.1057 22.4389V7.26072H19.9733L20.335 13.2012L20.0846 12.2969C20.1681 11.4993 20.3211 10.7759 20.5437 10.1266C20.7663 9.46811 21.0538 8.90235 21.4062 8.42934C21.7587 7.95632 22.1807 7.58997 22.6723 7.33028C23.1731 7.07058 23.7435 6.94074 24.3834 6.94074C24.5689 6.94074 24.7544 6.95001 24.9399 6.96856C25.1347 6.98711 25.3063 7.01957 25.4547 7.06595V11.5596C25.1393 11.4761 24.8333 11.4205 24.5365 11.3926C24.249 11.3555 23.9614 11.337 23.6739 11.337C23.1638 11.337 22.7001 11.3834 22.2827 11.4761C21.8746 11.5688 21.5175 11.7126 21.2115 11.9074C20.9054 12.0929 20.6504 12.334 20.4463 12.6308V22.4389H16.1057Z" fill="#321C4A"/>
<path d="M30.6337 22.7449C29.261 22.7449 28.1944 22.2905 27.4339 21.3816C26.6734 20.4634 26.2931 19.0814 26.2931 17.2357V7.24681H30.6337V15.7889C30.6337 16.7256 30.7079 17.4398 30.8563 17.9313C31.014 18.4229 31.2319 18.7614 31.5102 18.9469C31.7884 19.1231 32.1223 19.2113 32.5118 19.2113C33.0869 19.2113 33.6063 19.0258 34.07 18.6548C34.543 18.2745 34.8955 17.8293 35.1273 17.3192V7.24681H39.4679V22.4389H35.6282L35.2386 16.7071L35.4056 17.8618C35.2943 18.6965 35.0717 19.4849 34.7378 20.2268C34.4132 20.9688 33.9216 21.5763 33.2631 22.0493C32.6139 22.5131 31.7374 22.7449 30.6337 22.7449Z" fill="#321C4A"/>
<path d="M48.3045 22.6476C46.7649 22.6476 45.4525 22.3415 44.3674 21.7294C43.2822 21.1172 42.4521 20.2315 41.8771 19.0721C41.3021 17.9035 41.0146 16.4937 41.0146 14.8428C41.0146 13.1363 41.3206 11.6987 41.9328 10.5301C42.5449 9.35218 43.4074 8.4618 44.5204 7.85894C45.6334 7.25608 46.9365 6.95465 48.4297 6.95465C49.8766 6.95465 51.0916 7.22826 52.0747 7.77547C53.0671 8.32268 53.8184 9.12958 54.3285 10.1962C54.8386 11.2628 55.0937 12.5752 55.0937 14.1333C55.0937 14.3281 55.0844 14.5553 55.0658 14.815C55.0566 15.0654 55.0426 15.353 55.0241 15.6776H45.2578C45.3598 16.9389 45.6658 17.8618 46.176 18.4461C46.6861 19.0211 47.4002 19.3086 48.3184 19.3086C49.079 19.3086 49.654 19.1417 50.0435 18.8078C50.4424 18.4739 50.6789 18.0334 50.7531 17.4861H54.8989C54.8154 18.5342 54.4954 19.4478 53.9389 20.2268C53.3917 20.9966 52.6405 21.5949 51.6852 22.0215C50.7299 22.4389 49.603 22.6476 48.3045 22.6476ZM47.0246 13.2429H50.9339C50.8968 12.2691 50.6603 11.541 50.2244 11.0587C49.7978 10.5764 49.1392 10.3353 48.2489 10.3353C47.2008 10.3353 46.4357 10.7109 45.9534 11.4622C45.4711 12.2042 45.2253 13.2615 45.216 14.6342C45.2902 14.1055 45.4711 13.7438 45.7586 13.549C46.0461 13.345 46.4681 13.2429 47.0246 13.2429Z" fill="#321C4A"/>
<path d="M60.0338 22.4389L54.9837 2.21061H59.7138L61.8702 13.3264L62.6771 18.9469H62.7606L63.4979 13.3264L65.39 2.21061H71.2887L73.1947 13.3264L73.932 18.9469H74.0016L74.8502 13.3264L77.0344 2.21061H81.7646L76.6449 22.4389H71.0661L69.1045 11.4761L68.3811 6.23122H68.2976L67.5742 11.4761L65.6265 22.4389H60.0338Z" fill="#321C4A"/>
<path d="M82.9934 22.4389V7.26072H87.3062V22.4389H82.9934ZM85.1637 5.5217C84.4403 5.5217 83.8235 5.27128 83.3134 4.77044C82.8033 4.26033 82.5482 3.6111 82.5482 2.82274C82.5482 2.03438 82.8033 1.39443 83.3134 0.902863C83.8235 0.402025 84.4403 0.151607 85.1637 0.151607C85.8778 0.151607 86.49 0.402025 87.0001 0.902863C87.5102 1.39443 87.7653 2.03438 87.7653 2.82274C87.7653 3.6111 87.5102 4.26033 87.0001 4.77044C86.49 5.27128 85.8778 5.5217 85.1637 5.5217Z" fill="#321C4A"/>
<path d="M95.1715 22.6754C93.8638 22.6754 92.7369 22.4852 91.7909 22.105C90.8541 21.7247 90.126 21.1497 89.6067 20.3799C89.0873 19.6008 88.7997 18.613 88.7441 17.4166H92.9595C93.043 18.1586 93.2795 18.7058 93.669 19.0582C94.0678 19.4107 94.6011 19.5869 95.2689 19.5869C95.6028 19.5869 95.9228 19.5498 96.2288 19.4756C96.5349 19.3921 96.7853 19.253 96.9801 19.0582C97.1749 18.8542 97.2722 18.5759 97.2722 18.2235C97.2722 17.936 97.1981 17.7041 97.0497 17.5279C96.9105 17.3424 96.7019 17.1894 96.4236 17.0688C96.1546 16.9389 95.8254 16.823 95.4358 16.721C95.0463 16.6097 94.6058 16.4798 94.1142 16.3314C93.2424 16.0717 92.4262 15.7564 91.6657 15.3854C90.9144 15.0144 90.3069 14.5182 89.8432 13.8968C89.3794 13.2754 89.1476 12.4592 89.1476 11.4483C89.1476 9.93649 89.6994 8.81424 90.8031 8.08153C91.9161 7.34883 93.3722 6.98247 95.1715 6.98247C96.2288 6.98247 97.1795 7.12623 98.0235 7.41375C98.8675 7.70127 99.5631 8.21138 100.11 8.94409C100.667 9.67679 101.024 10.7109 101.182 12.0465L96.994 12.0187C96.9105 11.4251 96.7668 10.9845 96.5627 10.697C96.3587 10.4002 96.1268 10.2055 95.8671 10.1127C95.6074 10.0107 95.3385 9.95968 95.0602 9.95968C94.7449 9.95968 94.4574 10.0107 94.1977 10.1127C93.9473 10.2147 93.7478 10.3631 93.5994 10.5579C93.451 10.7527 93.3769 10.9984 93.3769 11.2952C93.3769 11.6477 93.4881 11.9491 93.7107 12.1995C93.9333 12.45 94.2719 12.6725 94.7263 12.8673C95.1808 13.0528 95.7605 13.2429 96.4653 13.4377C96.9291 13.5583 97.4485 13.7067 98.0235 13.8829C98.6078 14.0591 99.1643 14.3049 99.693 14.6202C100.231 14.9356 100.671 15.3622 101.015 15.9002C101.367 16.4381 101.543 17.1337 101.543 17.987C101.543 19.471 100.973 20.6257 99.8321 21.4511C98.6913 22.2673 97.1378 22.6754 95.1715 22.6754Z" fill="#321C4A"/>
<path d="M108.123 22.6197C106.936 22.6197 105.916 22.2998 105.063 21.6598C104.209 21.0106 103.555 20.097 103.101 18.9191C102.656 17.7412 102.433 16.3593 102.433 14.7733C102.433 13.1316 102.684 11.7312 103.184 10.5718C103.685 9.40319 104.386 8.51281 105.285 7.90068C106.185 7.27927 107.224 6.96856 108.402 6.96856C109.162 6.96856 109.816 7.09841 110.363 7.3581C110.92 7.6178 111.369 7.9656 111.713 8.40151C112.056 8.83743 112.283 9.31508 112.394 9.83447L112.895 11.2535L112.213 12.2413C112.121 11.8888 111.963 11.5874 111.74 11.337C111.527 11.0773 111.249 10.8779 110.906 10.7388C110.572 10.5996 110.173 10.5301 109.709 10.5301C108.773 10.5301 108.044 10.8872 107.525 11.6013C107.015 12.3062 106.76 13.3913 106.76 14.8568C106.76 16.2572 107.006 17.3099 107.497 18.0148C107.998 18.7197 108.722 19.0721 109.668 19.0721C110.122 19.0721 110.53 19.0072 110.892 18.8774C111.263 18.7382 111.564 18.5713 111.796 18.3765C112.028 18.1725 112.167 17.9731 112.213 17.7783L112.38 17.9592L112.213 18.8774C112.084 19.4339 111.907 19.944 111.685 20.4077C111.462 20.8622 111.189 21.2563 110.864 21.5902C110.539 21.9149 110.15 22.1699 109.695 22.3554C109.25 22.5316 108.726 22.6197 108.123 22.6197ZM112.227 22.4389L112.213 0.791566H116.526V22.4389H112.227Z" fill="#321C4A"/>
<path d="M125.386 22.6476C123.911 22.6476 122.632 22.3461 121.546 21.7433C120.461 21.1404 119.617 20.2547 119.014 19.086C118.421 17.9082 118.124 16.4659 118.124 14.7594C118.124 13.1456 118.439 11.7543 119.07 10.5857C119.701 9.4171 120.568 8.52209 121.672 7.90068C122.775 7.26999 124.032 6.95465 125.442 6.95465C126.963 6.95465 128.261 7.26999 129.337 7.90068C130.422 8.52209 131.252 9.4171 131.827 10.5857C132.412 11.7543 132.704 13.1456 132.704 14.7594C132.704 16.4659 132.384 17.9082 131.744 19.086C131.104 20.2547 130.232 21.1404 129.128 21.7433C128.025 22.3461 126.777 22.6476 125.386 22.6476ZM125.442 19.0721C126.286 19.0721 126.991 18.7614 127.556 18.14C128.122 17.5093 128.405 16.3825 128.405 14.7594C128.405 13.2476 128.108 12.1671 127.515 11.5178C126.93 10.8593 126.225 10.5301 125.4 10.5301C124.556 10.5301 123.851 10.8593 123.285 11.5178C122.72 12.1671 122.437 13.2476 122.437 14.7594C122.437 16.3175 122.734 17.4259 123.327 18.0844C123.921 18.7429 124.626 19.0721 125.442 19.0721Z" fill="#321C4A"/>
<path d="M134.313 22.4389V7.26072H138.181L138.543 12.9786L138.376 11.8239C138.487 10.9892 138.691 10.2008 138.988 9.45884C139.294 8.70758 139.753 8.10008 140.365 7.63635C140.987 7.17261 141.826 6.94074 142.883 6.94074C144.08 6.94074 145.072 7.30245 145.86 8.02589C146.658 8.74932 147.145 9.87156 147.321 11.3926L147.377 12.13V22.4389H143.036V13.9942C143.036 13.0296 142.953 12.2969 142.786 11.7961C142.628 11.286 142.41 10.9382 142.132 10.7527C141.854 10.5672 141.529 10.4744 141.158 10.4744C140.565 10.4744 140.054 10.6646 139.628 11.0448C139.21 11.4158 138.886 11.8564 138.654 12.3665V22.4389H134.313ZM151.745 22.4389V13.9942C151.745 13.0296 151.662 12.2969 151.495 11.7961C151.337 11.286 151.119 10.9382 150.841 10.7527C150.563 10.5672 150.238 10.4744 149.867 10.4744C149.274 10.4744 148.768 10.6646 148.351 11.0448C147.933 11.4158 147.609 11.8564 147.377 12.3665L147.279 12.9786L147.21 11.9074C147.293 11.119 147.474 10.3446 147.753 9.58405C148.04 8.82352 148.485 8.19283 149.088 7.69199C149.7 7.19116 150.53 6.94074 151.578 6.94074C152.923 6.94074 154.008 7.39056 154.834 8.29022C155.669 9.18059 156.086 10.544 156.086 12.3804V22.4389H151.745Z" fill="#321C4A"/>
</svg>
