<svg width="30" height="29" viewBox="0 0 30 29" fill="none" xmlns="http://www.w3.org/2000/svg">
<path d="M0 1C0 0.447715 0.447715 0 1 0H8.51092C8.81951 0 9.11081 0.142473 9.30027 0.386059L15.4402 8.2802C15.7573 8.68802 15.7117 9.27032 15.3347 9.62368L1.68394 22.4213C1.04528 23.0201 0 22.5672 0 21.6918V1Z" fill="white"/>
<path d="M19.8549 1.49614C19.474 0.829482 19.9554 0 20.7232 0H29C29.5523 0 30 0.447715 30 1V9.27682C30 10.0446 29.1705 10.526 28.5039 10.1451L23.2368 7.13531C23.0818 7.04672 22.9533 6.91824 22.8647 6.76321L19.8549 1.49614Z" fill="white"/>
<path d="M30 20.5352C30 20.2008 29.8329 19.8886 29.5547 19.7031L21.66 14.44C21.2734 14.1823 20.7603 14.2247 20.4213 14.5425L6.84484 27.2705C6.18349 27.8905 6.62225 29 7.52878 29H29C29.5523 29 30 28.5523 30 28V20.5352Z" fill="white"/>
</svg>
