<svg width="31" height="25" viewBox="0 0 31 25" fill="none" xmlns="http://www.w3.org/2000/svg">
<path d="M11.4465 12.3363L14.3399 12.3369C17.6536 12.3369 20.3399 15.0232 20.3399 18.3369L11.0052 18.3357L11.0065 19.6703L21.6732 19.6692V18.3369C21.6732 16.8936 21.2489 15.5328 20.4917 14.3359L24.3399 14.3369C26.9963 14.3369 29.2897 15.8905 30.3613 18.1388C27.2083 22.2996 22.1024 25.0036 16.3399 25.0036C12.6581 25.0036 9.53916 24.2161 7.00596 22.8372L7.00789 10.4316C8.66863 10.6695 10.1883 11.3444 11.4465 12.3363ZM4.33984 9.00357C5.02363 9.00357 5.58719 9.51829 5.66421 10.1814L5.67317 10.3357V22.3369C5.67317 23.0733 5.07623 23.6703 4.33984 23.6703H1.67317C0.9368 23.6703 0.33984 23.0733 0.33984 22.3369V10.3369C0.33984 9.60052 0.9368 9.00357 1.67317 9.00357H4.33984ZM17.2017 1.77075L17.6728 2.24244L18.1445 1.77075C19.4463 0.469 21.5569 0.469 22.8587 1.77075C24.1604 3.07249 24.1604 5.18304 22.8587 6.48479L17.6732 11.6703L12.4877 6.48479C11.186 5.18304 11.186 3.07249 12.4877 1.77075C13.7895 0.469 15.9 0.469 17.2017 1.77075Z" fill="white"/>
</svg>
