<svg width="18" height="18" viewBox="0 0 18 18" fill="none" xmlns="http://www.w3.org/2000/svg">
<path d="M8.99935 17.3333C4.39697 17.3333 0.666016 13.6023 0.666016 9.00001C0.666016 4.39763 4.39697 0.666672 8.99935 0.666672C13.6017 0.666672 17.3327 4.39763 17.3327 9.00001C17.3327 13.6023 13.6017 17.3333 8.99935 17.3333ZM8.99935 15.6667C12.6813 15.6667 15.666 12.6819 15.666 9.00001C15.666 5.31811 12.6813 2.33334 8.99935 2.33334C5.31745 2.33334 2.33268 5.31811 2.33268 9.00001C2.33268 12.6819 5.31745 15.6667 8.99935 15.6667ZM8.99935 7.82151L11.3563 5.46447L12.5348 6.64298L10.1778 9.00001L12.5348 11.357L11.3563 12.5355L8.99935 10.1785L6.64232 12.5355L5.46382 11.357L7.82085 9.00001L5.46382 6.64298L6.64232 5.46447L8.99935 7.82151Z" fill="black"/>
</svg>
