<svg width="34" height="19" viewBox="0 0 34 19" fill="none" xmlns="http://www.w3.org/2000/svg">
<path d="M18.3401 11.0075C17.6441 15.1566 14.0356 18.3181 9.68874 18.3181C4.84369 18.3181 0.916016 14.3904 0.916016 9.54542C0.916016 4.70038 4.84369 0.772705 9.68874 0.772705C14.0356 0.772705 17.6441 3.93423 18.3401 8.0833H33.0827V11.0075H30.1584V16.856H27.2342V11.0075H24.3099V16.856H21.3857V11.0075H18.3401ZM9.68874 15.3939C12.9188 15.3939 15.5372 12.7754 15.5372 9.54542C15.5372 6.3154 12.9188 3.69694 9.68874 3.69694C6.45871 3.69694 3.84026 6.3154 3.84026 9.54542C3.84026 12.7754 6.45871 15.3939 9.68874 15.3939Z" fill="white"/>
</svg>
