<svg width="18" height="18" viewBox="0 0 18 18" fill="none" xmlns="http://www.w3.org/2000/svg">
<path d="M16.6045 16.4155L16.415 16.605L15.0479 15.2378L15.2373 15.0483L16.6045 16.4155ZM8.16602 1.3667C11.9194 1.3667 14.9658 4.4131 14.9658 8.1665C14.9658 11.9199 11.9194 14.9663 8.16602 14.9663C4.41261 14.9663 1.36621 11.9199 1.36621 8.1665C1.36621 4.4131 4.41261 1.3667 8.16602 1.3667ZM8.16602 1.6333C4.5565 1.6333 1.63281 4.55699 1.63281 8.1665C1.63281 11.776 4.5565 14.6997 8.16602 14.6997C11.7755 14.6997 14.6992 11.776 14.6992 8.1665C14.6992 4.55699 11.7755 1.6333 8.16602 1.6333Z" fill="black" stroke="#0A0D14" stroke-width="1.4"/>
</svg>
