<svg width="16" height="18" viewBox="0 0 16 18" fill="none" xmlns="http://www.w3.org/2000/svg">
<path d="M14.625 5.16309V12.8359L8 16.6719L1.375 12.8359V5.16309L8 1.32715L14.625 5.16309ZM8 6.5C9.38069 6.5 10.5 7.61929 10.5 9C10.5 10.3807 9.38068 11.5 8 11.5C6.61929 11.5 5.5 10.3807 5.5 9C5.5 7.61929 6.61929 6.5 8 6.5ZM8 7C6.89541 7 6 7.89541 6 9C6 10.1046 6.89541 11 8 11C9.10459 11 10 10.1046 10 9C10 7.89541 9.10459 7 8 7ZM14.125 5.45117L13.876 5.30664L8.25098 2.05078L8 1.90527L7.74902 2.05078L2.12402 5.30664L1.875 5.45117V12.5488L2.12402 12.6934L7.74902 15.9492L8 16.0947L8.25098 15.9492L13.876 12.6934L14.125 12.5488V5.45117Z" fill="black" stroke="#414651"/>
</svg>
