<svg width="14" height="17" viewBox="0 0 14 17" fill="none" xmlns="http://www.w3.org/2000/svg">
<path d="M7.00391 1.24951C8.79882 1.24951 10.2539 2.70459 10.2539 4.49951V6.49951H13.0039C13.142 6.49951 13.2539 6.61144 13.2539 6.74951V15.7495C13.2539 15.8876 13.142 15.9995 13.0039 15.9995H1.00391C0.865865 15.9995 0.753906 15.8875 0.753906 15.7495V6.74951C0.753906 6.61144 0.865838 6.49951 1.00391 6.49951H3.75391V4.49951C3.75391 2.7046 5.20897 1.24952 7.00391 1.24951ZM1.25391 15.4995H12.7539V6.99951H10.2539V8.49951H9.75391V6.99951H4.25391V8.49951H3.75391V6.99951H1.25391V15.4995ZM7.00391 1.74951C5.48509 1.74952 4.25391 2.98074 4.25391 4.49951V6.49951H9.75391V4.49951C9.75391 2.98073 8.52264 1.74951 7.00391 1.74951Z" fill="black" stroke="#414651"/>
</svg>
