<svg width="108" height="17" viewBox="0 0 108 17" fill="none" xmlns="http://www.w3.org/2000/svg">
<path d="M4.37859 16.2431V6.2021C4.37859 5.81812 4.44899 5.53974 4.58978 5.36695C4.73057 5.19416 4.94496 5.08537 5.23294 5.04057H0.932413V2.28555H10.8582V5.04057H7.4312V16.2431H4.37859Z" fill="#630403"/>
<path d="M11.4029 16.2431V5.77012H14.0716L14.3212 9.86906L14.1484 9.2451C14.206 8.69474 14.3116 8.19557 14.4651 7.7476C14.6187 7.29323 14.8171 6.90285 15.0603 6.57647C15.3035 6.25009 15.5947 5.99731 15.9339 5.81812C16.2794 5.63893 16.673 5.54934 17.1146 5.54934C17.2426 5.54934 17.3706 5.55574 17.4986 5.56854C17.6329 5.58134 17.7513 5.60374 17.8537 5.63573V8.73633C17.6361 8.67874 17.425 8.64034 17.2202 8.62114C17.0218 8.59554 16.8234 8.58275 16.625 8.58275C16.273 8.58275 15.9531 8.61474 15.6651 8.67874C15.3835 8.74273 15.1371 8.84193 14.9259 8.97632C14.7147 9.10431 14.5387 9.2707 14.398 9.47549V16.2431H11.4029Z" fill="#630403"/>
<path d="M21.4272 16.4542C20.4801 16.4542 19.7442 16.1407 19.2194 15.5135C18.6946 14.8799 18.4322 13.9264 18.4322 12.6529V5.76053H21.4272V11.6545C21.4272 12.3009 21.4784 12.7937 21.5808 13.1329C21.6896 13.472 21.84 13.7056 22.032 13.8336C22.224 13.9552 22.4544 14.016 22.7232 14.016C23.1199 14.016 23.4783 13.888 23.7983 13.632C24.1247 13.3696 24.3679 13.0625 24.5279 12.7105V5.76053H27.5229V16.2431H24.8734L24.6046 12.2881L24.7198 13.0849C24.643 13.6608 24.4895 14.2048 24.2591 14.7168C24.0351 15.2287 23.6959 15.6479 23.2415 15.9743C22.7936 16.2943 22.1888 16.4542 21.4272 16.4542Z" fill="#630403"/>
<path d="M33.6201 16.387C32.5578 16.387 31.6522 16.1759 30.9035 15.7535C30.1547 15.3311 29.582 14.72 29.1852 13.92C28.7884 13.1137 28.59 12.1409 28.59 11.0018C28.59 9.82427 28.8012 8.83233 29.2236 8.02598C29.646 7.21323 30.2411 6.59887 31.0091 6.1829C31.777 5.76692 32.6762 5.55894 33.7065 5.55894C34.7048 5.55894 35.5432 5.74773 36.2216 6.1253C36.9063 6.50288 37.4247 7.05964 37.7767 7.79559C38.1286 8.53155 38.3046 9.43709 38.3046 10.5122C38.3046 10.6466 38.2982 10.8034 38.2854 10.9826C38.279 11.1554 38.2694 11.3538 38.2566 11.5778H31.5179C31.5882 12.4481 31.7994 13.0849 32.1514 13.488C32.5034 13.8848 32.9962 14.0832 33.6297 14.0832C34.1545 14.0832 34.5513 13.968 34.82 13.7376C35.0952 13.5072 35.2584 13.2032 35.3096 12.8257H38.1702C38.1126 13.5488 37.8918 14.1792 37.5079 14.7168C37.1303 15.2479 36.6119 15.6607 35.9528 15.9551C35.2936 16.2431 34.5161 16.387 33.6201 16.387ZM32.737 9.89786H35.4344C35.4088 9.2259 35.2456 8.72354 34.9448 8.39076C34.6505 8.05798 34.1961 7.89159 33.5817 7.89159C32.8586 7.89159 32.3306 8.15077 31.9978 8.66914C31.665 9.18111 31.4955 9.91066 31.4891 10.8578C31.5403 10.493 31.665 10.2434 31.8634 10.109C32.0618 9.96826 32.353 9.89786 32.737 9.89786Z" fill="#630403"/>
<path d="M41.7133 16.2431L38.2287 2.28555H41.4925L42.9804 9.95546L43.5372 13.8336H43.5948L44.1035 9.95546L45.4091 2.28555H49.4792L50.7943 9.95546L51.3031 13.8336H51.3511L51.9366 9.95546L53.4438 2.28555H56.7075L53.175 16.2431H49.3256L47.9721 8.67874L47.4729 5.05977H47.4153L46.9162 8.67874L45.5723 16.2431H41.7133Z" fill="#630403"/>
<path d="M57.5554 16.2431V5.77012H60.5312V16.2431H57.5554ZM59.0529 4.5702C58.5538 4.5702 58.1282 4.39741 57.7762 4.05183C57.4243 3.69986 57.2483 3.25189 57.2483 2.70792C57.2483 2.16396 57.4243 1.72238 57.7762 1.38321C58.1282 1.03763 58.5538 0.864838 59.0529 0.864838C59.5457 0.864838 59.9681 1.03763 60.3201 1.38321C60.672 1.72238 60.848 2.16396 60.848 2.70792C60.848 3.25189 60.672 3.69986 60.3201 4.05183C59.9681 4.39741 59.5457 4.5702 59.0529 4.5702Z" fill="#630403"/>
<path d="M65.9583 16.4062C65.056 16.4062 64.2785 16.2751 63.6257 16.0127C62.9793 15.7503 62.477 15.3535 62.1186 14.8223C61.7602 14.2848 61.5618 13.6032 61.5234 12.7777H64.432C64.4896 13.2896 64.6528 13.6672 64.9216 13.9104C65.1968 14.1536 65.5648 14.2752 66.0255 14.2752C66.2559 14.2752 66.4767 14.2496 66.6879 14.1984C66.8991 14.1408 67.0719 14.0448 67.2063 13.9104C67.3407 13.7696 67.4079 13.5776 67.4079 13.3344C67.4079 13.1361 67.3567 12.9761 67.2543 12.8545C67.1583 12.7265 67.0143 12.6209 66.8223 12.5377C66.6367 12.4481 66.4095 12.3681 66.1407 12.2977C65.872 12.2209 65.568 12.1313 65.2288 12.0289C64.6272 11.8497 64.0641 11.6321 63.5393 11.3762C63.0209 11.1202 62.6018 10.7778 62.2818 10.349C61.9618 9.92026 61.8018 9.35709 61.8018 8.65954C61.8018 7.61641 62.1826 6.84206 62.9441 6.33649C63.7121 5.83092 64.7168 5.57814 65.9583 5.57814C66.6879 5.57814 67.3439 5.67733 67.9262 5.87572C68.5086 6.07411 68.9886 6.42608 69.3661 6.93165C69.7501 7.43722 69.9965 8.15077 70.1053 9.07231L67.2159 9.05311C67.1583 8.64354 67.0591 8.33956 66.9183 8.14117C66.7775 7.93639 66.6175 7.80199 66.4383 7.738C66.2591 7.6676 66.0735 7.63241 65.8815 7.63241C65.664 7.63241 65.4656 7.6676 65.2864 7.738C65.1136 7.80839 64.976 7.91079 64.8736 8.04518C64.7712 8.17957 64.72 8.34916 64.72 8.55395C64.72 8.79713 64.7968 9.00512 64.9504 9.17791C65.104 9.3507 65.3376 9.50429 65.6512 9.63868C65.9647 9.76667 66.3647 9.89786 66.8511 10.0323C67.1711 10.1154 67.5294 10.2178 67.9262 10.3394C68.3294 10.461 68.7134 10.6306 69.0781 10.8482C69.4493 11.0658 69.7533 11.3602 69.9901 11.7313C70.2333 12.1025 70.3549 12.5825 70.3549 13.1713C70.3549 14.1952 69.9613 14.9919 69.1741 15.5615C68.387 16.1247 67.3151 16.4062 65.9583 16.4062Z" fill="#630403"/>
<path d="M74.8951 16.3678C74.0759 16.3678 73.372 16.1471 72.7832 15.7055C72.1944 15.2575 71.7433 14.6272 71.4297 13.8144C71.1225 13.0017 70.9689 12.0481 70.9689 10.9538C70.9689 9.82107 71.1417 8.85473 71.4873 8.05478C71.8329 7.24843 72.316 6.63407 72.9368 6.2117C73.5576 5.78292 74.2743 5.56854 75.0871 5.56854C75.6118 5.56854 76.063 5.65813 76.4406 5.83732C76.8246 6.01651 77.1349 6.25649 77.3717 6.55727C77.6085 6.85806 77.7653 7.18763 77.8421 7.54601L78.1877 8.52515L77.7173 9.2067C77.6533 8.96352 77.5445 8.75553 77.3909 8.58275C77.2437 8.40356 77.0517 8.26597 76.815 8.16997C76.5846 8.07398 76.3094 8.02598 75.9894 8.02598C75.343 8.02598 74.8407 8.27236 74.4823 8.76513C74.1303 9.2515 73.9543 10.0003 73.9543 11.0114C73.9543 11.9777 74.1239 12.7041 74.4631 13.1905C74.8087 13.6768 75.3078 13.92 75.9606 13.92C76.2742 13.92 76.5558 13.8752 76.8054 13.7856C77.0613 13.6896 77.2693 13.5744 77.4293 13.44C77.5893 13.2992 77.6853 13.1617 77.7173 13.0273L77.8325 13.1521L77.7173 13.7856C77.6277 14.1696 77.5061 14.5216 77.3525 14.8415C77.1989 15.1551 77.0101 15.4271 76.7862 15.6575C76.5622 15.8815 76.2934 16.0575 75.9798 16.1855C75.6726 16.307 75.311 16.3678 74.8951 16.3678ZM77.7269 16.2431L77.7173 1.30641H80.6931V16.2431H77.7269Z" fill="#630403"/>
<path d="M86.8064 16.387C85.7889 16.387 84.9057 16.1791 84.157 15.7631C83.4082 15.3471 82.8259 14.736 82.4099 13.9296C82.0003 13.1169 81.7955 12.1217 81.7955 10.9442C81.7955 9.83066 82.0131 8.87073 82.4483 8.06438C82.8835 7.25803 83.4818 6.64047 84.2434 6.2117C85.0049 5.77652 85.8721 5.55894 86.8448 5.55894C87.8943 5.55894 88.7903 5.77652 89.5326 6.2117C90.2814 6.64047 90.8542 7.25803 91.2509 8.06438C91.6541 8.87073 91.8557 9.83066 91.8557 10.9442C91.8557 12.1217 91.6349 13.1169 91.1933 13.9296C90.7518 14.736 90.1502 15.3471 89.3886 15.7631C88.6271 16.1791 87.7664 16.387 86.8064 16.387ZM86.8448 13.92C87.4272 13.92 87.9135 13.7056 88.3039 13.2768C88.6943 12.8417 88.8895 12.0641 88.8895 10.9442C88.8895 9.90106 88.6847 9.15551 88.2751 8.70754C87.8719 8.25317 87.3856 8.02598 86.816 8.02598C86.2336 8.02598 85.7473 8.25317 85.3569 8.70754C84.9665 9.15551 84.7713 9.90106 84.7713 10.9442C84.7713 12.0193 84.9761 12.7841 85.3857 13.2384C85.7953 13.6928 86.2816 13.92 86.8448 13.92Z" fill="#630403"/>
<path d="M92.9662 16.2431V5.77012H95.6348L95.8844 9.71547L95.7692 8.91872C95.846 8.34276 95.9868 7.79879 96.1916 7.28683C96.4028 6.76846 96.7196 6.34929 97.142 6.02931C97.5707 5.70933 98.1499 5.54934 98.8794 5.54934C99.705 5.54934 100.39 5.79892 100.934 6.29809C101.484 6.79726 101.82 7.57161 101.942 8.62114L101.98 9.12991V16.2431H98.985V10.4162C98.985 9.75067 98.9274 9.2451 98.8122 8.89952C98.7035 8.54755 98.5531 8.30756 98.3611 8.17957C98.1691 8.05158 97.9451 7.98758 97.6891 7.98758C97.2795 7.98758 96.9276 8.11877 96.6332 8.38116C96.3452 8.63714 96.1212 8.94112 95.9612 9.2931V16.2431H92.9662ZM104.994 16.2431V10.4162C104.994 9.75067 104.937 9.2451 104.821 8.89952C104.713 8.54755 104.562 8.30756 104.37 8.17957C104.178 8.05158 103.954 7.98758 103.698 7.98758C103.289 7.98758 102.94 8.11877 102.652 8.38116C102.364 8.63714 102.14 8.94112 101.98 9.2931L101.913 9.71547L101.865 8.97632C101.922 8.43235 102.047 7.89799 102.239 7.37322C102.438 6.84846 102.745 6.41328 103.161 6.06771C103.583 5.72213 104.156 5.54934 104.879 5.54934C105.807 5.54934 106.556 5.85972 107.125 6.48048C107.701 7.09484 107.989 8.03558 107.989 9.3027V16.2431H104.994Z" fill="#630403"/>
</svg>
