<svg width="95" height="15" viewBox="0 0 95 15" fill="none" xmlns="http://www.w3.org/2000/svg">
<path d="M3.86769 14.2281V5.47863C3.86769 5.14404 3.92903 4.90147 4.05171 4.7509C4.17439 4.60034 4.36121 4.50554 4.61215 4.4665H0.864775V2.06584H9.51384V4.4665H6.52765V14.2281H3.86769Z" fill="#321C4A"/>
<path d="M9.98853 14.2281V5.10222H12.3139L12.5314 8.67393L12.3808 8.13023C12.431 7.65065 12.523 7.21569 12.6569 6.82534C12.7907 6.42941 12.9636 6.08925 13.1755 5.80485C13.3874 5.52045 13.6411 5.30018 13.9367 5.14404C14.2378 4.9879 14.5807 4.90983 14.9655 4.90983C15.077 4.90983 15.1886 4.91541 15.3001 4.92656C15.4172 4.93771 15.5204 4.95723 15.6096 4.98511V7.6869C15.42 7.63671 15.236 7.60325 15.0575 7.58652C14.8847 7.56422 14.7118 7.55307 14.5389 7.55307C14.2322 7.55307 13.9534 7.58095 13.7024 7.63671C13.4571 7.69248 13.2424 7.77891 13.0584 7.89602C12.8743 8.00754 12.721 8.15253 12.5983 8.33098V14.2281H9.98853Z" fill="#321C4A"/>
<path d="M18.7235 14.4121C17.8982 14.4121 17.2569 14.1388 16.7996 13.5924C16.3423 13.0403 16.1137 12.2094 16.1137 11.0997V5.09385H18.7235V10.2298C18.7235 10.793 18.7681 11.2224 18.8573 11.5179C18.9521 11.8135 19.0831 12.017 19.2504 12.1285C19.4177 12.2345 19.6185 12.2875 19.8527 12.2875C20.1984 12.2875 20.5107 12.1759 20.7895 11.9529C21.0739 11.7242 21.2858 11.4566 21.4253 11.1499V5.09385H24.035V14.2281H21.7264L21.4922 10.7818L21.5925 11.4761C21.5256 11.978 21.3918 12.452 21.191 12.8981C20.9959 13.3442 20.7003 13.7095 20.3044 13.9939C19.914 14.2727 19.3871 14.4121 18.7235 14.4121Z" fill="#321C4A"/>
<path d="M29.348 14.3535C28.4223 14.3535 27.6333 14.1695 26.9808 13.8015C26.3284 13.4334 25.8293 12.9009 25.4836 12.2038C25.1378 11.5012 24.9649 10.6536 24.9649 9.66096C24.9649 8.6349 25.149 7.77055 25.517 7.06791C25.8851 6.35971 26.4037 5.82437 27.0728 5.4619C27.742 5.09943 28.5255 4.9182 29.4233 4.9182C30.2932 4.9182 31.0238 5.0827 31.6149 5.41171C32.2115 5.74072 32.6632 6.22587 32.9699 6.86716C33.2766 7.50845 33.43 8.29752 33.43 9.23436C33.43 9.35147 33.4244 9.48809 33.4133 9.64423C33.4077 9.7948 33.3993 9.96766 33.3882 10.1628H27.5162C27.5775 10.9212 27.7615 11.4761 28.0682 11.8274C28.3749 12.1731 28.8043 12.346 29.3564 12.346C29.8137 12.346 30.1594 12.2456 30.3936 12.0449C30.6334 11.8441 30.7756 11.5793 30.8202 11.2502H33.3129C33.2627 11.8804 33.0703 12.4297 32.7357 12.8981C32.4067 13.3609 31.955 13.7206 31.3806 13.9771C30.8063 14.2281 30.1287 14.3535 29.348 14.3535ZM28.5785 8.69902H30.929C30.9066 8.1135 30.7644 7.67575 30.5024 7.38577C30.2458 7.0958 29.8499 6.95081 29.3146 6.95081C28.6844 6.95081 28.2244 7.17665 27.9344 7.62835C27.6444 8.07446 27.4966 8.71018 27.4911 9.53549C27.5357 9.21763 27.6444 9.00015 27.8173 8.88305C27.9902 8.76037 28.2439 8.69902 28.5785 8.69902Z" fill="#321C4A"/>
<path d="M36.4002 14.2281L33.3639 2.06584H36.2078L37.5044 8.74921L37.9895 12.1285H38.0397L38.483 8.74921L39.6206 2.06584H43.1672L44.3132 8.74921L44.7565 12.1285H44.7984L45.3086 8.74921L46.6219 2.06584H49.4658L46.3876 14.2281H43.0334L41.854 7.63671L41.419 4.48323H41.3688L40.9339 7.63671L39.7628 14.2281H36.4002Z" fill="#321C4A"/>
<path d="M50.2047 14.2281V5.10222H52.7977V14.2281H50.2047ZM51.5096 4.05663C51.0746 4.05663 50.7038 3.90607 50.3971 3.60494C50.0904 3.29824 49.937 2.90789 49.937 2.43389C49.937 1.95989 50.0904 1.57512 50.3971 1.27956C50.7038 0.978437 51.0746 0.827873 51.5096 0.827873C51.9389 0.827873 52.307 0.978437 52.6137 1.27956C52.9204 1.57512 53.0738 1.95989 53.0738 2.43389C53.0738 2.90789 52.9204 3.29824 52.6137 3.60494C52.307 3.90607 51.9389 4.05663 51.5096 4.05663Z" fill="#321C4A"/>
<path d="M57.5268 14.3703C56.7405 14.3703 56.0629 14.256 55.4941 14.0273C54.9309 13.7987 54.4932 13.4529 54.1809 12.9901C53.8686 12.5217 53.6957 11.9278 53.6623 11.2084H56.1968C56.247 11.6545 56.3892 11.9835 56.6234 12.1955C56.8632 12.4074 57.1838 12.5133 57.5853 12.5133C57.7861 12.5133 57.9785 12.491 58.1625 12.4464C58.3465 12.3962 58.4971 12.3126 58.6142 12.1955C58.7313 12.0728 58.7898 11.9055 58.7898 11.6936C58.7898 11.5207 58.7452 11.3813 58.656 11.2753C58.5723 11.1638 58.4469 11.0718 58.2796 10.9993C58.1179 10.9212 57.9199 10.8515 57.6857 10.7902C57.4515 10.7233 57.1866 10.6452 56.891 10.556C56.3669 10.3998 55.8761 10.2102 55.4189 9.98718C54.9672 9.76412 54.6019 9.46578 54.3231 9.09216C54.0443 8.71854 53.9049 8.22781 53.9049 7.61998C53.9049 6.71102 54.2367 6.03627 54.9003 5.59573C55.5694 5.15519 56.4449 4.93492 57.5268 4.93492C58.1625 4.93492 58.7341 5.02136 59.2415 5.19423C59.749 5.3671 60.1672 5.6738 60.4962 6.11434C60.8308 6.55488 61.0455 7.17665 61.1403 7.97966L58.6225 7.96293C58.5723 7.60604 58.4859 7.34116 58.3632 7.16829C58.2405 6.98984 58.1011 6.87274 57.945 6.81697C57.7889 6.75563 57.6271 6.72496 57.4598 6.72496C57.2702 6.72496 57.0974 6.75563 56.9412 6.81697C56.7907 6.87832 56.6708 6.96754 56.5815 7.08464C56.4923 7.20175 56.4477 7.34952 56.4477 7.52797C56.4477 7.73988 56.5146 7.92111 56.6485 8.07167C56.7823 8.22224 56.9858 8.35607 57.2591 8.47318C57.5323 8.58471 57.8809 8.69902 58.3047 8.81613C58.5835 8.88862 58.8958 8.97785 59.2415 9.0838C59.5928 9.18975 59.9274 9.33753 60.2453 9.52713C60.5687 9.71673 60.8336 9.97324 61.0399 10.2967C61.2518 10.6201 61.3578 11.0383 61.3578 11.5514C61.3578 12.4436 61.0148 13.1379 60.3289 13.6342C59.643 14.1249 58.709 14.3703 57.5268 14.3703Z" fill="#321C4A"/>
<path d="M65.314 14.3368C64.6002 14.3368 63.9868 14.1444 63.4738 13.7596C62.9607 13.3693 62.5676 12.82 62.2944 12.1118C62.0267 11.4036 61.8929 10.5727 61.8929 9.61914C61.8929 8.63211 62.0434 7.79006 62.3445 7.09301C62.6457 6.39038 63.0667 5.85504 63.6076 5.48699C64.1485 5.11337 64.7731 4.92656 65.4813 4.92656C65.9386 4.92656 66.3317 5.00463 66.6607 5.16077C66.9953 5.31691 67.2658 5.52603 67.4721 5.78812C67.6784 6.05021 67.815 6.3374 67.882 6.64968L68.1831 7.50288L67.7732 8.09677C67.7174 7.88486 67.6227 7.70363 67.4888 7.55307C67.3606 7.39692 67.1933 7.27703 66.9869 7.19338C66.7862 7.10974 66.5464 7.06791 66.2676 7.06791C65.7044 7.06791 65.2666 7.28261 64.9543 7.71199C64.6476 8.1358 64.4943 8.78825 64.4943 9.66933C64.4943 10.5114 64.642 11.1443 64.9376 11.5681C65.2387 11.9919 65.6737 12.2038 66.2425 12.2038C66.5157 12.2038 66.7611 12.1648 66.9786 12.0867C67.2016 12.0031 67.3829 11.9027 67.5223 11.7856C67.6617 11.6629 67.7453 11.543 67.7732 11.4259L67.8736 11.5346L67.7732 12.0867C67.6951 12.4213 67.5892 12.728 67.4554 13.0068C67.3215 13.2801 67.157 13.5171 66.9618 13.7178C66.7667 13.913 66.5325 14.0664 66.2592 14.1779C65.9915 14.2838 65.6765 14.3368 65.314 14.3368ZM67.7816 14.2281L67.7732 1.21265H70.3663V14.2281H67.7816Z" fill="#321C4A"/>
<path d="M75.6932 14.3535C74.8066 14.3535 74.037 14.1723 73.3846 13.8098C72.7322 13.4474 72.2247 12.9148 71.8622 12.2122C71.5053 11.504 71.3269 10.6368 71.3269 9.61077C71.3269 8.64047 71.5165 7.80401 71.8957 7.10137C72.2749 6.39874 72.7963 5.86061 73.4599 5.48699C74.1235 5.10779 74.8791 4.9182 75.7267 4.9182C76.6412 4.9182 77.4219 5.10779 78.0688 5.48699C78.7213 5.86061 79.2203 6.39874 79.5661 7.10137C79.9174 7.80401 80.0931 8.64047 80.0931 9.61077C80.0931 10.6368 79.9007 11.504 79.5159 12.2122C79.1311 12.9148 78.6069 13.4474 77.9433 13.8098C77.2797 14.1723 76.5297 14.3535 75.6932 14.3535ZM75.7267 12.2038C76.2342 12.2038 76.658 12.017 76.9981 11.6434C77.3383 11.2642 77.5084 10.5867 77.5084 9.61077C77.5084 8.70181 77.3299 8.05216 76.973 7.66181C76.6217 7.26588 76.1979 7.06791 75.7016 7.06791C75.1942 7.06791 74.7703 7.26588 74.4302 7.66181C74.09 8.05216 73.9199 8.70181 73.9199 9.61077C73.9199 10.5476 74.0984 11.214 74.4553 11.6099C74.8122 12.0059 75.236 12.2038 75.7267 12.2038Z" fill="#321C4A"/>
<path d="M81.0608 14.2281V5.10222H83.3861L83.6036 8.5401L83.5032 7.84583C83.5702 7.34395 83.6928 6.86995 83.8713 6.42383C84.0553 5.97214 84.3313 5.60689 84.6994 5.32806C85.073 5.04924 85.5777 4.90983 86.2134 4.90983C86.9327 4.90983 87.5294 5.12731 88.0034 5.56227C88.483 5.99724 88.7758 6.67199 88.8817 7.58652L88.9152 8.02985V14.2281H86.3054V9.15072C86.3054 8.57077 86.2552 8.13023 86.1548 7.8291C86.06 7.52239 85.929 7.31328 85.7617 7.20175C85.5944 7.09022 85.3992 7.03446 85.1762 7.03446C84.8193 7.03446 84.5126 7.14877 84.256 7.37741C84.0051 7.60046 83.8099 7.86535 83.6705 8.17205V14.2281H81.0608ZM91.5417 14.2281V9.15072C91.5417 8.57077 91.4915 8.13023 91.3911 7.8291C91.2963 7.52239 91.1653 7.31328 90.998 7.20175C90.8307 7.09022 90.6355 7.03446 90.4124 7.03446C90.0556 7.03446 89.7516 7.14877 89.5007 7.37741C89.2498 7.60046 89.0546 7.86535 88.9152 8.17205L88.8566 8.5401L88.8148 7.89602C88.865 7.42202 88.9737 6.95638 89.141 6.49912C89.3139 6.04185 89.5816 5.66265 89.944 5.36152C90.3121 5.06039 90.8112 4.90983 91.4413 4.90983C92.2499 4.90983 92.9023 5.18029 93.3986 5.7212C93.9005 6.25654 94.1515 7.07628 94.1515 8.18041V14.2281H91.5417Z" fill="#321C4A"/>
</svg>
