<svg width="109" height="16" viewBox="0 0 109 16" fill="none" xmlns="http://www.w3.org/2000/svg">
<path d="M4.42411 15.6235V5.58256C4.42411 5.19858 4.49451 4.9202 4.6353 4.74741C4.77609 4.57462 4.99048 4.46583 5.27846 4.42103H0.977932V1.66601H10.9037V4.42103H7.47672V15.6235H4.42411Z" fill="#635903"/>
<path d="M11.4485 15.6235V5.15058H14.1171L14.3667 9.24952L14.1939 8.62556C14.2515 8.0752 14.3571 7.57603 14.5107 7.12806C14.6643 6.67369 14.8626 6.28331 15.1058 5.95693C15.349 5.63055 15.6402 5.37777 15.9794 5.19858C16.3249 5.01939 16.7185 4.9298 17.1601 4.9298C17.2881 4.9298 17.4161 4.9362 17.5441 4.949C17.6785 4.9618 17.7969 4.9842 17.8992 5.01619V8.11679C17.6817 8.0592 17.4705 8.0208 17.2657 8.0016C17.0673 7.976 16.8689 7.96321 16.6705 7.96321C16.3186 7.96321 15.9986 7.9952 15.7106 8.0592C15.429 8.12319 15.1826 8.22239 14.9714 8.35678C14.7603 8.48477 14.5843 8.65116 14.4435 8.85595V15.6235H11.4485Z" fill="#635903"/>
<path d="M21.4728 15.8347C20.5256 15.8347 19.7897 15.5211 19.2649 14.894C18.7401 14.2604 18.4778 13.3069 18.4778 12.0333V5.14099H21.4728V11.035C21.4728 11.6814 21.524 12.1741 21.6264 12.5133C21.7352 12.8525 21.8855 13.0861 22.0775 13.2141C22.2695 13.3357 22.4999 13.3965 22.7687 13.3965C23.1655 13.3965 23.5238 13.2685 23.8438 13.0125C24.1702 12.7501 24.4134 12.4429 24.5734 12.0909V5.14099H27.5684V15.6235H24.9189L24.6502 11.6686L24.7654 12.4653C24.6886 13.0413 24.535 13.5852 24.3046 14.0972C24.0806 14.6092 23.7414 15.0284 23.2871 15.3547C22.8391 15.6747 22.2343 15.8347 21.4728 15.8347Z" fill="#635903"/>
<path d="M33.6656 15.7675C32.6033 15.7675 31.6978 15.5563 30.949 15.1339C30.2003 14.7116 29.6275 14.1004 29.2307 13.3005C28.8339 12.4941 28.6356 11.5214 28.6356 10.3823C28.6356 9.20473 28.8467 8.21279 29.2691 7.40644C29.6915 6.59369 30.2867 5.97933 31.0546 5.56336C31.8226 5.14738 32.7217 4.9394 33.752 4.9394C34.7504 4.9394 35.5887 5.12819 36.2671 5.50576C36.9518 5.88334 37.4702 6.4401 37.8222 7.17605C38.1741 7.91201 38.3501 8.81755 38.3501 9.89268C38.3501 10.0271 38.3437 10.1839 38.3309 10.3631C38.3245 10.5358 38.3149 10.7342 38.3021 10.9582H31.5634C31.6338 11.8286 31.845 12.4653 32.1969 12.8685C32.5489 13.2653 33.0417 13.4637 33.6752 13.4637C34.2 13.4637 34.5968 13.3485 34.8656 13.1181C35.1407 12.8877 35.3039 12.5837 35.3551 12.2061H38.2157C38.1582 12.9293 37.9374 13.5596 37.5534 14.0972C37.1758 14.6284 36.6574 15.0412 35.9983 15.3355C35.3391 15.6235 34.5616 15.7675 33.6656 15.7675ZM32.7825 9.27832H35.4799C35.4543 8.60636 35.2911 8.104 34.9904 7.77122C34.696 7.43844 34.2416 7.27205 33.6272 7.27205C32.9041 7.27205 32.3761 7.53123 32.0433 8.0496C31.7106 8.56157 31.541 9.29112 31.5346 10.2383C31.5858 9.87348 31.7106 9.6239 31.9089 9.48951C32.1073 9.34872 32.3985 9.27832 32.7825 9.27832Z" fill="#635903"/>
<path d="M41.7588 15.6235L38.2742 1.66601H41.538L43.0259 9.33592L43.5827 13.2141H43.6403L44.1491 9.33592L45.4546 1.66601H49.5247L50.8398 9.33592L51.3486 13.2141H51.3966L51.9822 9.33592L53.4893 1.66601H56.7531L53.2205 15.6235H49.3711L48.0176 8.0592L47.5185 4.44023H47.4609L46.9617 8.0592L45.6178 15.6235H41.7588Z" fill="#635903"/>
<path d="M57.601 15.6235V5.15058H60.5768V15.6235H57.601ZM59.0985 3.95066C58.5993 3.95066 58.1737 3.77787 57.8217 3.43229C57.4698 3.08032 57.2938 2.63235 57.2938 2.08838C57.2938 1.54442 57.4698 1.10284 57.8217 0.763665C58.1737 0.418087 58.5993 0.245298 59.0985 0.245298C59.5912 0.245298 60.0136 0.418087 60.3656 0.763665C60.7176 1.10284 60.8935 1.54442 60.8935 2.08838C60.8935 2.63235 60.7176 3.08032 60.3656 3.43229C60.0136 3.77787 59.5912 3.95066 59.0985 3.95066Z" fill="#635903"/>
<path d="M66.0039 15.7867C65.1015 15.7867 64.324 15.6555 63.6712 15.3931C63.0249 15.1307 62.5225 14.734 62.1641 14.2028C61.8057 13.6652 61.6073 12.9837 61.5689 12.1581H64.4776C64.5352 12.6701 64.6983 13.0477 64.9671 13.2909C65.2423 13.534 65.6103 13.6556 66.0711 13.6556C66.3014 13.6556 66.5222 13.63 66.7334 13.5788C66.9446 13.5212 67.1174 13.4253 67.2518 13.2909C67.3862 13.1501 67.4534 12.9581 67.4534 12.7149C67.4534 12.5165 67.4022 12.3565 67.2998 12.2349C67.2038 12.1069 67.0598 12.0013 66.8678 11.9182C66.6822 11.8286 66.455 11.7486 66.1863 11.6782C65.9175 11.6014 65.6135 11.5118 65.2743 11.4094C64.6727 11.2302 64.1096 11.0126 63.5848 10.7566C63.0665 10.5006 62.6473 10.1583 62.3273 9.72949C62.0073 9.30072 61.8473 8.73755 61.8473 8.04C61.8473 6.99687 62.2281 6.22252 62.9897 5.71695C63.7576 5.21138 64.7623 4.9586 66.0039 4.9586C66.7334 4.9586 67.3894 5.05779 67.9717 5.25618C68.5541 5.45457 69.0341 5.80654 69.4116 6.31211C69.7956 6.81768 70.042 7.53123 70.1508 8.45277L67.2614 8.43357C67.2038 8.024 67.1046 7.72002 66.9638 7.52163C66.823 7.31685 66.663 7.18246 66.4838 7.11846C66.3046 7.04806 66.1191 7.01287 65.9271 7.01287C65.7095 7.01287 65.5111 7.04806 65.3319 7.11846C65.1591 7.18885 65.0215 7.29125 64.9191 7.42564C64.8167 7.56003 64.7655 7.72962 64.7655 7.93441C64.7655 8.17759 64.8423 8.38558 64.9959 8.55837C65.1495 8.73116 65.3831 8.88475 65.6967 9.01914C66.0103 9.14713 66.4102 9.27832 66.8966 9.41271C67.2166 9.49591 67.575 9.5983 67.9717 9.71989C68.3749 9.84148 68.7589 10.0111 69.1237 10.2287C69.4948 10.4462 69.7988 10.7406 70.0356 11.1118C70.2788 11.483 70.4004 11.9629 70.4004 12.5517C70.4004 13.5756 70.0068 14.3724 69.2197 14.942C68.4325 15.5051 67.3606 15.7867 66.0039 15.7867Z" fill="#635903"/>
<path d="M74.9406 15.7483C74.1214 15.7483 73.4175 15.5275 72.8287 15.0859C72.24 14.638 71.7888 14.0076 71.4752 13.1949C71.168 12.3821 71.0144 11.4286 71.0144 10.3343C71.0144 9.20153 71.1872 8.23519 71.5328 7.43524C71.8784 6.62889 72.3616 6.01453 72.9823 5.59216C73.6031 5.16338 74.3198 4.949 75.1326 4.949C75.6573 4.949 76.1085 5.03859 76.4861 5.21778C76.8701 5.39697 77.1805 5.63695 77.4172 5.93773C77.654 6.23852 77.8108 6.56809 77.8876 6.92647L78.2332 7.90561L77.7628 8.58716C77.6988 8.34398 77.59 8.13599 77.4364 7.96321C77.2892 7.78402 77.0973 7.64643 76.8605 7.55043C76.6301 7.45444 76.3549 7.40644 76.0349 7.40644C75.3886 7.40644 74.8862 7.65282 74.5278 8.14559C74.1758 8.63196 73.9999 9.38071 73.9999 10.3918C73.9999 11.3582 74.1694 12.0845 74.5086 12.5709C74.8542 13.0573 75.3534 13.3005 76.0061 13.3005C76.3197 13.3005 76.6013 13.2557 76.8509 13.1661C77.1069 13.0701 77.3148 12.9549 77.4748 12.8205C77.6348 12.6797 77.7308 12.5421 77.7628 12.4077L77.878 12.5325L77.7628 13.1661C77.6732 13.55 77.5516 13.902 77.398 14.222C77.2444 14.5356 77.0557 14.8076 76.8317 15.038C76.6077 15.2619 76.3389 15.4379 76.0253 15.5659C75.7181 15.6875 75.3566 15.7483 74.9406 15.7483ZM77.7724 15.6235L77.7628 0.68687H80.7386V15.6235H77.7724Z" fill="#635903"/>
<path d="M86.8519 15.7675C85.8344 15.7675 84.9513 15.5595 84.2025 15.1435C83.4537 14.7276 82.8714 14.1164 82.4554 13.3101C82.0458 12.4973 81.8411 11.5022 81.8411 10.3247C81.8411 9.21112 82.0586 8.25119 82.4938 7.44484C82.929 6.63849 83.5273 6.02093 84.2889 5.59216C85.0504 5.15698 85.9176 4.9394 86.8903 4.9394C87.9399 4.9394 88.8358 5.15698 89.5782 5.59216C90.3269 6.02093 90.8997 6.63849 91.2964 7.44484C91.6996 8.25119 91.9012 9.21112 91.9012 10.3247C91.9012 11.5022 91.6804 12.4973 91.2389 13.3101C90.7973 14.1164 90.1957 14.7276 89.4342 15.1435C88.6726 15.5595 87.8119 15.7675 86.8519 15.7675ZM86.8903 13.3005C87.4727 13.3005 87.9591 13.0861 88.3494 12.6573C88.7398 12.2221 88.935 11.4446 88.935 10.3247C88.935 9.28152 88.7302 8.53597 88.3206 8.088C87.9175 7.63363 87.4311 7.40644 86.8615 7.40644C86.2792 7.40644 85.7928 7.63363 85.4024 8.088C85.0121 8.53597 84.8169 9.28152 84.8169 10.3247C84.8169 11.3998 85.0216 12.1645 85.4312 12.6189C85.8408 13.0733 86.3272 13.3005 86.8903 13.3005Z" fill="#635903"/>
<path d="M93.0117 15.6235V5.15058H95.6804L95.93 9.09593L95.8148 8.29918C95.8916 7.72322 96.0323 7.17925 96.2371 6.66729C96.4483 6.14892 96.7651 5.72975 97.1875 5.40977C97.6162 5.08979 98.1954 4.9298 98.925 4.9298C99.7505 4.9298 100.435 5.17938 100.979 5.67855C101.53 6.17772 101.866 6.95207 101.987 8.0016L102.026 8.51037V15.6235H99.0306V9.79669C99.0306 9.13113 98.973 8.62556 98.8578 8.27998C98.749 7.92801 98.5986 7.68802 98.4066 7.56003C98.2146 7.43204 97.9906 7.36804 97.7346 7.36804C97.3251 7.36804 96.9731 7.49923 96.6787 7.76162C96.3907 8.0176 96.1667 8.32158 96.0067 8.67356V15.6235H93.0117ZM105.04 15.6235V9.79669C105.04 9.13113 104.982 8.62556 104.867 8.27998C104.758 7.92801 104.608 7.68802 104.416 7.56003C104.224 7.43204 104 7.36804 103.744 7.36804C103.334 7.36804 102.985 7.49923 102.698 7.76162C102.41 8.0176 102.186 8.32158 102.026 8.67356L101.958 9.09593L101.91 8.35678C101.968 7.81281 102.093 7.27845 102.285 6.75368C102.483 6.22892 102.79 5.79374 103.206 5.44817C103.629 5.10259 104.201 4.9298 104.925 4.9298C105.853 4.9298 106.601 5.24018 107.171 5.86094C107.747 6.4753 108.035 7.41604 108.035 8.68316V15.6235H105.04Z" fill="#635903"/>
</svg>
