<svg width="88" height="14" viewBox="0 0 88 14" fill="none" xmlns="http://www.w3.org/2000/svg">
<path d="M2.92869 13.2089V5.00903C2.92869 4.69546 2.98618 4.46813 3.10115 4.32702C3.21613 4.18591 3.3912 4.09707 3.62638 4.06049H0.114407V1.81063H8.22017V4.06049H5.42156V13.2089H2.92869Z" fill="#630403"/>
<path d="M8.66504 13.2089V4.65627H10.8443L11.0482 8.00362L10.9071 7.49407C10.9541 7.04462 11.0403 6.63698 11.1658 6.27115C11.2912 5.90009 11.4532 5.5813 11.6518 5.31476C11.8504 5.04823 12.0882 4.8418 12.3652 4.69546C12.6474 4.54913 12.9688 4.47597 13.3294 4.47597C13.4339 4.47597 13.5384 4.48119 13.643 4.49164C13.7527 4.5021 13.8494 4.52039 13.933 4.54652V7.07859C13.7553 7.03155 13.5829 7.0002 13.4156 6.98452C13.2536 6.96361 13.0916 6.95316 12.9296 6.95316C12.6421 6.95316 12.3808 6.97929 12.1457 7.03155C11.9157 7.08382 11.7145 7.16482 11.542 7.27457C11.3696 7.37909 11.2259 7.51497 11.1109 7.68221V13.2089H8.66504Z" fill="#630403"/>
<path d="M16.8513 13.3813C16.0778 13.3813 15.4768 13.1252 15.0483 12.6131C14.6197 12.0957 14.4054 11.317 14.4054 10.277V4.64843H16.8513V9.46171C16.8513 9.98956 16.8931 10.392 16.9767 10.669C17.0655 10.9459 17.1884 11.1367 17.3451 11.2412C17.5019 11.3405 17.6901 11.3902 17.9096 11.3902C18.2336 11.3902 18.5263 11.2856 18.7876 11.0766C19.0541 10.8623 19.2527 10.6115 19.3833 10.324V4.64843H21.8292V13.2089H19.6656L19.4461 9.9791L19.5401 10.6298C19.4774 11.1001 19.352 11.5443 19.1638 11.9624C18.9809 12.3805 18.7039 12.7228 18.3329 12.9894C17.9671 13.2507 17.4732 13.3813 16.8513 13.3813Z" fill="#630403"/>
<path d="M26.8084 13.3265C25.9409 13.3265 25.2014 13.154 24.5899 12.8091C23.9785 12.4641 23.5107 11.965 23.1867 11.3118C22.8627 10.6533 22.7007 9.8589 22.7007 8.92865C22.7007 7.96704 22.8732 7.15698 23.2181 6.49849C23.563 5.83477 24.049 5.33305 24.6762 4.99335C25.3033 4.65365 26.0376 4.48381 26.879 4.48381C27.6943 4.48381 28.3789 4.63798 28.9329 4.94632C29.4921 5.25466 29.9154 5.70934 30.2028 6.31034C30.4903 6.91135 30.634 7.65085 30.634 8.52885C30.634 8.6386 30.6288 8.76664 30.6183 8.91297C30.6131 9.05407 30.6052 9.21608 30.5948 9.399H25.0917C25.1491 10.1098 25.3216 10.6298 25.609 10.959C25.8965 11.283 26.2989 11.445 26.8163 11.445C27.2448 11.445 27.5688 11.351 27.7883 11.1628C28.0131 10.9747 28.1463 10.7264 28.1881 10.4181H30.5242C30.4772 11.0087 30.2969 11.5234 29.9833 11.9624C29.675 12.3962 29.2517 12.7333 28.7134 12.9737C28.1751 13.2089 27.5401 13.3265 26.8084 13.3265ZM26.0872 8.02714H28.2901C28.2692 7.47839 28.1359 7.06814 27.8903 6.79638C27.6499 6.52462 27.2788 6.38874 26.7771 6.38874C26.1865 6.38874 25.7554 6.6004 25.4836 7.02371C25.2119 7.44181 25.0734 8.03759 25.0681 8.81106C25.1099 8.51317 25.2119 8.30935 25.3739 8.1996C25.5359 8.08462 25.7737 8.02714 26.0872 8.02714Z" fill="#630403"/>
<path d="M33.4176 13.2089L30.572 1.81063H33.2373L34.4524 8.07417L34.9071 11.2412H34.9541L35.3696 8.07417L36.4357 1.81063H39.7596L40.8336 8.07417L41.249 11.2412H41.2882L41.7664 8.07417L42.9972 1.81063H45.6625L42.7777 13.2089H39.6342L38.5288 7.03155L38.1212 4.07617H38.0741L37.6665 7.03155L36.569 13.2089H33.4176Z" fill="#630403"/>
<path d="M46.3549 13.2089V4.65627H48.7851V13.2089H46.3549ZM47.5779 3.67636C47.1702 3.67636 46.8227 3.53526 46.5352 3.25305C46.2478 2.96561 46.1041 2.59978 46.1041 2.15555C46.1041 1.71133 46.2478 1.35073 46.5352 1.07374C46.8227 0.791529 47.1702 0.650423 47.5779 0.650423C47.9803 0.650423 48.3252 0.791529 48.6126 1.07374C48.9001 1.35073 49.0438 1.71133 49.0438 2.15555C49.0438 2.59978 48.9001 2.96561 48.6126 3.25305C48.3252 3.53526 47.9803 3.67636 47.5779 3.67636Z" fill="#630403"/>
<path d="M53.2171 13.3421C52.4802 13.3421 51.8452 13.235 51.3121 13.0207C50.7843 12.8065 50.3741 12.4824 50.0814 12.0487C49.7887 11.6097 49.6267 11.0531 49.5954 10.3789H51.9706C52.0177 10.797 52.1509 11.1053 52.3704 11.3039C52.5952 11.5025 52.8957 11.6018 53.272 11.6018C53.4601 11.6018 53.6404 11.5809 53.8129 11.5391C53.9853 11.4921 54.1264 11.4137 54.2362 11.3039C54.3459 11.189 54.4008 11.0322 54.4008 10.8336C54.4008 10.6716 54.359 10.5409 54.2754 10.4416C54.197 10.3371 54.0794 10.2509 53.9226 10.1829C53.7711 10.1098 53.5855 10.0444 53.366 9.98694C53.1465 9.92423 52.8983 9.85106 52.6213 9.76744C52.13 9.62111 51.6701 9.44342 51.2416 9.23438C50.8183 9.02533 50.476 8.74573 50.2147 8.39558C49.9533 8.04543 49.8227 7.58553 49.8227 7.01588C49.8227 6.16401 50.1337 5.53165 50.7556 5.11878C51.3827 4.70592 52.2032 4.49948 53.2171 4.49948C53.8129 4.49948 54.3485 4.58049 54.8241 4.7425C55.2997 4.90451 55.6917 5.19195 56 5.60481C56.3136 6.01768 56.5148 6.6004 56.6036 7.35296L54.244 7.33728C54.197 7.00281 54.116 6.75457 54.001 6.59256C53.886 6.42532 53.7554 6.31557 53.609 6.26331C53.4627 6.20582 53.3111 6.17708 53.1544 6.17708C52.9767 6.17708 52.8147 6.20582 52.6683 6.26331C52.5272 6.3208 52.4149 6.40442 52.3312 6.51416C52.2476 6.62391 52.2058 6.76241 52.2058 6.92964C52.2058 7.12824 52.2685 7.29809 52.394 7.43919C52.5194 7.5803 52.7101 7.70573 52.9662 7.81548C53.2223 7.92 53.5489 8.02714 53.9461 8.13689C54.2074 8.20483 54.5001 8.28844 54.8241 8.38774C55.1534 8.48704 55.4669 8.62553 55.7648 8.80322C56.0679 8.98091 56.3162 9.22131 56.5096 9.52443C56.7081 9.82754 56.8074 10.2195 56.8074 10.7003C56.8074 11.5365 56.486 12.1872 55.8432 12.6523C55.2004 13.1122 54.325 13.3421 53.2171 13.3421Z" fill="#630403"/>
<path d="M60.5152 13.3108C59.8462 13.3108 59.2713 13.1305 58.7905 12.7699C58.3097 12.404 57.9413 11.8893 57.6852 11.2255C57.4343 10.5618 57.3089 9.78312 57.3089 8.88945C57.3089 7.96442 57.45 7.17527 57.7322 6.522C58.0144 5.86351 58.409 5.3618 58.916 5.01687C59.4229 4.66672 60.0082 4.49164 60.6719 4.49164C61.1005 4.49164 61.4689 4.56481 61.7773 4.71114C62.0908 4.85748 62.3443 5.05346 62.5377 5.29908C62.731 5.54471 62.8591 5.81386 62.9218 6.10653L63.204 6.90613L62.8199 7.46271C62.7676 7.26412 62.6788 7.09427 62.5534 6.95316C62.4332 6.80683 62.2764 6.69447 62.083 6.61608C61.8949 6.53768 61.6701 6.49849 61.4088 6.49849C60.881 6.49849 60.4707 6.69969 60.1781 7.10211C59.8906 7.49929 59.7469 8.11075 59.7469 8.93649C59.7469 9.72563 59.8854 10.3188 60.1624 10.716C60.4446 11.1132 60.8522 11.3118 61.3853 11.3118C61.6414 11.3118 61.8713 11.2752 62.0752 11.202C62.2842 11.1236 62.4541 11.0296 62.5847 10.9198C62.7154 10.8048 62.7938 10.6925 62.8199 10.5827L62.914 10.6846L62.8199 11.202C62.7467 11.5156 62.6474 11.803 62.522 12.0643C62.3966 12.3204 62.2424 12.5425 62.0595 12.7307C61.8766 12.9136 61.6571 13.0573 61.401 13.1618C61.1501 13.2611 60.8549 13.3108 60.5152 13.3108ZM62.8277 13.2089L62.8199 1.01103H65.2501V13.2089H62.8277Z" fill="#630403"/>
<path d="M70.2424 13.3265C69.4115 13.3265 68.6902 13.1566 68.0788 12.8169C67.4673 12.4772 66.9917 11.9781 66.652 11.3196C66.3176 10.6559 66.1503 9.84322 66.1503 8.88161C66.1503 7.97226 66.328 7.18834 66.6834 6.52984C67.0388 5.87135 67.5274 5.36702 68.1493 5.01687C68.7713 4.66149 69.4794 4.48381 70.2738 4.48381C71.1309 4.48381 71.8625 4.66149 72.4688 5.01687C73.0802 5.36702 73.548 5.87135 73.872 6.52984C74.2012 7.18834 74.3658 7.97226 74.3658 8.88161C74.3658 9.84322 74.1855 10.6559 73.8249 11.3196C73.4643 11.9781 72.9731 12.4772 72.3512 12.8169C71.7293 13.1566 71.0263 13.3265 70.2424 13.3265ZM70.2738 11.3118C70.7494 11.3118 71.1465 11.1367 71.4653 10.7865C71.7841 10.4312 71.9435 9.79619 71.9435 8.88161C71.9435 8.02975 71.7763 7.4209 71.4418 7.05507C71.1126 6.68401 70.7154 6.49849 70.2503 6.49849C69.7747 6.49849 69.3775 6.68401 69.0587 7.05507C68.7399 7.4209 68.5805 8.02975 68.5805 8.88161C68.5805 9.7596 68.7477 10.3841 69.0822 10.7552C69.4167 11.1262 69.8139 11.3118 70.2738 11.3118Z" fill="#630403"/>
<path d="M75.2727 13.2089V4.65627H77.4521L77.6559 7.87819L77.5618 7.22753C77.6245 6.75718 77.7395 6.31296 77.9067 5.89487C78.0792 5.47155 78.3379 5.12923 78.6828 4.86793C79.033 4.60662 79.5059 4.47597 80.1017 4.47597C80.7759 4.47597 81.3351 4.67979 81.7793 5.08743C82.2288 5.49507 82.5031 6.12743 82.6024 6.98452L82.6338 7.4V13.2089H80.1879V8.45045C80.1879 7.90693 80.1409 7.49407 80.0468 7.21186C79.958 6.92442 79.8352 6.72844 79.6784 6.62391C79.5216 6.51939 79.3387 6.46713 79.1296 6.46713C78.7952 6.46713 78.5077 6.57427 78.2673 6.78854C78.0322 6.99758 77.8492 7.24583 77.7186 7.53326V13.2089H75.2727ZM85.0953 13.2089V8.45045C85.0953 7.90693 85.0483 7.49407 84.9542 7.21186C84.8654 6.92442 84.7425 6.72844 84.5858 6.62391C84.429 6.51939 84.2461 6.46713 84.037 6.46713C83.7025 6.46713 83.4177 6.57427 83.1825 6.78854C82.9473 6.99758 82.7644 7.24583 82.6338 7.53326L82.5789 7.87819L82.5397 7.27457C82.5867 6.83035 82.6887 6.39396 82.8454 5.96542C83.0075 5.53687 83.2583 5.1815 83.598 4.89928C83.9429 4.61707 84.4107 4.47597 85.0012 4.47597C85.759 4.47597 86.3705 4.72943 86.8356 5.23637C87.306 5.73808 87.5411 6.50633 87.5411 7.5411V13.2089H85.0953Z" fill="#630403"/>
</svg>
