<svg width="21" height="28" viewBox="0 0 21 28" fill="none" xmlns="http://www.w3.org/2000/svg">
<path d="M2.26957 12.1266V17.9505C2.26957 18.4126 2.64412 18.7871 3.10616 18.7871H8.7358C9.19784 18.7871 9.5724 18.4126 9.5724 17.9505V8.19611C9.5724 7.73407 9.94696 7.35951 10.409 7.35951H20.1634C20.6254 7.35951 21 6.98496 21 6.52292V0.893277C21 0.431237 20.6254 0.0566794 20.1634 0.0566794H14.3395C11.1807 0.0566794 8.43669 2.30728 7.83119 5.41167L7.79275 5.58146L7.62295 5.61991C4.52017 6.22541 2.26796 8.96938 2.26796 12.1282L2.26957 12.1266Z" fill="white"/>
<path d="M6.66049 27.9433H0V21.4755C0 21.0134 0.374557 20.6389 0.836597 20.6389H10.591C11.053 20.6389 11.4276 20.2643 11.4276 19.8023V10.0479C11.4276 9.58584 11.8022 9.21128 12.2642 9.21128H17.8938C18.3559 9.21128 18.7304 9.58584 18.7304 10.0479V15.8526C18.7304 19.013 16.4606 21.7554 13.377 22.3801L13.2073 22.4185L13.1688 22.5883C12.5441 25.6735 9.80172 27.9433 6.66049 27.9433Z" fill="white"/>
</svg>
