<svg width="20" height="20" viewBox="0 0 20 20" fill="none" xmlns="http://www.w3.org/2000/svg">
<path d="M0 0.663447C0 0.297035 0.297035 0 0.663447 0H5.64654C5.85128 0 6.04454 0.0945232 6.17024 0.25613L10.2437 5.49347C10.4542 5.76404 10.4239 6.15037 10.1738 6.3848L1.11721 14.8753C0.693485 15.2726 0 14.9721 0 14.3913V0.663447Z" fill="#321C4A"/>
<path d="M13.1727 0.992609C12.92 0.550318 13.2393 0 13.7487 0H19.24C19.6064 0 19.9034 0.297035 19.9034 0.663447V6.15468C19.9034 6.66409 19.3531 6.98345 18.9108 6.73071L15.4164 4.7339C15.3135 4.67513 15.2283 4.58988 15.1695 4.48703L13.1727 0.992609Z" fill="#321C4A"/>
<path d="M19.9034 13.624C19.9034 13.4022 19.7925 13.195 19.608 13.072L14.3702 9.58017C14.1138 9.40919 13.7733 9.43736 13.5485 9.64818L4.54119 18.0925C4.10242 18.5039 4.39351 19.24 4.99495 19.24H19.2399C19.6064 19.24 19.9034 18.9429 19.9034 18.5765V13.624Z" fill="#321C4A"/>
</svg>
