<svg width="19" height="19" viewBox="0 0 19 19" fill="none" xmlns="http://www.w3.org/2000/svg">
<path d="M0 0.621772C0 0.278377 0.278377 0 0.621772 0H5.29185C5.48372 0 5.66484 0.0885856 5.78264 0.240041L9.60025 5.14839C9.79747 5.40196 9.76906 5.76402 9.53471 5.98373L1.04703 13.9409C0.649922 14.3132 0 14.0316 0 13.4873V0.621772Z" fill="#630403"/>
<path d="M12.3452 0.930257C12.1084 0.515748 12.4077 0 12.8851 0H18.0314C18.3748 0 18.6531 0.278376 18.6531 0.621771V5.76806C18.6531 6.24547 18.1374 6.54477 17.7229 6.30791L14.448 4.43653C14.3516 4.38145 14.2717 4.30156 14.2166 4.20517L12.3452 0.930257Z" fill="#630403"/>
<path d="M18.6531 12.7682C18.6531 12.5603 18.5492 12.3662 18.3763 12.2508L13.4676 8.97837C13.2272 8.81814 12.9081 8.84454 12.6974 9.04211L4.25593 16.956C3.84472 17.3415 4.11752 18.0314 4.68118 18.0314H18.0314C18.3748 18.0314 18.6531 17.753 18.6531 17.4096V12.7682Z" fill="#630403"/>
</svg>
