<svg width="17" height="22" viewBox="0 0 17 22" fill="none" xmlns="http://www.w3.org/2000/svg">
<path d="M1.77352 9.23293V13.6671C1.77352 14.0189 2.0587 14.3041 2.41049 14.3041H6.69678C7.04856 14.3041 7.33374 14.0189 7.33374 13.6671V6.24032C7.33374 5.88853 7.61893 5.60335 7.97071 5.60335H15.3975C15.7493 5.60335 16.0345 5.31817 16.0345 4.96638V0.680093C16.0345 0.328305 15.7493 0.043125 15.3975 0.043125H10.9633C8.55824 0.043125 6.46904 1.75669 6.00802 4.1203L5.97875 4.24958L5.84947 4.27885C3.48708 4.73987 1.7723 6.82907 1.7723 9.23415L1.77352 9.23293Z" fill="#61051A"/>
<path d="M5.11668 21.2754H0.0455172V16.351C0.0455172 15.9992 0.330697 15.714 0.682485 15.714H8.10929C8.46107 15.714 8.74625 15.4288 8.74625 15.077V7.65022C8.74625 7.29843 9.03143 7.01325 9.38322 7.01325H13.6695C14.0213 7.01325 14.3065 7.29843 14.3065 7.65022V12.0698C14.3065 14.4761 12.5783 16.5641 10.2305 17.0397L10.1012 17.069L10.072 17.1983C9.59633 19.5472 7.50834 21.2754 5.11668 21.2754Z" fill="#61051A"/>
</svg>
