<svg width="23" height="23" viewBox="0 0 23 23" fill="none" xmlns="http://www.w3.org/2000/svg">
<path d="M0 0.761379C0 0.340881 0.340881 0 0.761379 0H6.48004C6.71499 0 6.93678 0.108476 7.08103 0.293938L11.7558 6.30437C11.9973 6.61488 11.9625 7.05823 11.6756 7.32727L1.28212 17.0711C0.795851 17.527 0 17.1822 0 16.5157V0.761379Z" fill="#630403"/>
<path d="M15.1171 1.13913C14.8271 0.631551 15.1936 0 15.7782 0H22.08C22.5005 0 22.8414 0.340881 22.8414 0.761379V7.06318C22.8414 7.64778 22.2098 8.01429 21.7022 7.72424L17.692 5.43268C17.574 5.36523 17.4762 5.2674 17.4087 5.14937L15.1171 1.13913Z" fill="#630403"/>
<path d="M22.8414 15.6351C22.8414 15.3805 22.7141 15.1428 22.5023 15.0016L16.4915 10.9943C16.1971 10.7981 15.8064 10.8304 15.5484 11.0724L5.21152 20.7632C4.70798 21.2352 5.04204 22.08 5.73226 22.08H22.08C22.5005 22.08 22.8414 21.7391 22.8414 21.3186V15.6351Z" fill="#630403"/>
</svg>
