<svg width="14" height="14" viewBox="0 0 14 14" fill="none" xmlns="http://www.w3.org/2000/svg">
<path fill-rule="evenodd" clip-rule="evenodd" d="M13.1838 1.74664L12.2509 0.815104C11.1625 -0.2717 9.37448 -0.2717 8.28616 0.815104L1.36735 7.72408C0.978656 8.11216 0.74544 8.57792 0.58996 9.12136L0.0457919 11.4502C-0.265169 12.9252 1.0564 14.3225 2.53345 13.9343L4.86562 13.391C5.4098 13.3133 5.87624 13.0028 6.26494 12.6146L13.1838 5.7057C14.2721 4.6189 14.2721 2.83344 13.1838 1.74664ZM4.55466 12.0713L2.22248 12.6146C1.75605 12.6922 1.28962 12.3042 1.36735 11.7607L1.91153 9.43184C1.98927 9.19896 2.06701 8.96608 2.30022 8.7332L5.25432 11.6831C5.0211 11.8383 4.78788 11.9936 4.55466 12.0713ZM6.26494 10.6739L3.31084 7.72408L7.27552 3.76498L10.2296 6.71487L6.26494 10.6739ZM12.1731 4.77416L11.1625 5.78333L8.2084 2.83344L9.21904 1.82427C9.7632 1.28087 10.6961 1.28087 11.2402 1.82427L12.1731 2.75582C12.7173 3.29922 12.7173 4.23076 12.1731 4.77416Z" fill="white"/>
</svg>
